<svg width="24" height="24" viewBox="0 0 24 24" fill="none" xmlns="http://www.w3.org/2000/svg">
<path fill-rule="evenodd" clip-rule="evenodd" d="M11.3002 16.9539H12.4316C12.4316 16.9539 12.779 16.9173 12.9477 16.7432C13.1065 16.5874 13.1065 16.285 13.1065 16.285C13.1065 16.285 13.0867 14.8738 13.7913 14.6722C14.4861 14.4706 15.3893 16.0284 16.3321 16.6332C17.0467 17.0914 17.5926 16.9906 17.5926 16.9906L20.1334 16.9539C20.1334 16.9539 21.4633 16.8806 20.8281 15.9184C20.7785 15.836 20.4609 15.2037 18.9424 13.9024C17.3544 12.5371 17.5628 12.757 19.4783 10.4019C20.6495 8.96326 21.116 8.08355 20.9671 7.70784C20.848 7.35046 19.9845 7.4421 19.9845 7.4421L17.1261 7.46043C17.1261 7.46043 16.9177 7.43293 16.7589 7.52457C16.61 7.60704 16.5108 7.80864 16.5108 7.80864C16.5108 7.80864 16.0542 8.91744 15.4587 9.87046C14.1883 11.8681 13.6722 11.9689 13.4638 11.8498C12.9775 11.5566 13.0966 10.686 13.0966 10.0721C13.0966 8.13853 13.4142 7.33213 12.4812 7.12137C12.1736 7.04806 11.9453 7.00224 11.1513 7.00224C10.129 6.99308 9.26555 7.00224 8.77923 7.22217C8.45171 7.36879 8.20358 7.69868 8.35246 7.71701C8.54103 7.7445 8.96781 7.82697 9.19608 8.11104C9.49383 8.47759 9.47398 9.30231 9.47398 9.30231C9.47398 9.30231 9.6427 11.5749 9.07698 11.859C8.68991 12.0514 8.16388 11.6574 7.03244 9.84297C6.44687 8.90828 6.01017 7.88195 6.01017 7.88195C6.01017 7.88195 5.93077 7.68952 5.77197 7.58872C5.59332 7.46043 5.33527 7.42377 5.33527 7.42377L2.61583 7.4421C2.61583 7.4421 2.20891 7.45126 2.06004 7.61621C1.93101 7.76282 2.05011 8.06522 2.05011 8.06522C2.05011 8.06522 4.17405 12.6562 6.58582 14.9746C8.79908 17.0914 11.3002 16.9539 11.3002 16.9539Z" fill="#999999"/>
</svg>
