<svg width="120" height="116" viewBox="0 0 120 116" fill="none" xmlns="http://www.w3.org/2000/svg">
<path d="M34.0206 111.582L34.1237 111.479C34.3299 111.17 34.5361 110.758 34.5361 110.448C34.5361 110.036 34.433 109.624 34.1237 109.418C33.9175 109.108 33.6082 108.902 33.1959 108.799C32.9897 108.696 32.7835 108.696 32.5773 108.696H30.1031V115.191H32.6804C32.8866 115.191 33.1959 115.191 33.4021 115.088C33.8144 114.985 34.1237 114.778 34.433 114.366C34.6392 114.057 34.8454 113.644 34.8454 113.232C34.8454 112.82 34.7423 112.407 34.433 112.098C34.3299 111.789 34.2268 111.686 34.0206 111.582ZM31.134 109.521H32.6804C32.8866 109.521 33.0928 109.624 33.299 109.83C33.4021 109.933 33.5051 110.139 33.5051 110.345C33.5051 110.552 33.4021 110.758 33.299 110.861C33.1959 111.067 32.8866 111.17 32.7835 111.17H31.134V109.521ZM33.5051 113.851C33.299 114.057 32.9897 114.16 32.6804 114.16H31.134V112.201H32.7835C32.9897 112.201 33.299 112.304 33.5051 112.51C33.6082 112.716 33.7113 112.923 33.7113 113.232C33.8144 113.438 33.7113 113.644 33.5051 113.851Z" fill="#151101"/>
<path d="M42.0618 111.995C42.3711 111.686 42.4742 111.17 42.4742 110.655C42.4742 110.139 42.268 109.727 41.9588 109.314C41.7526 109.005 41.3402 108.799 40.9278 108.593C40.7216 108.49 40.5155 108.49 40.2062 108.49H37.3196V114.985H38.3505V112.613H40.2062L41.3402 114.985H42.4742L41.2371 112.407C41.6495 112.407 41.8557 112.201 42.0618 111.995ZM41.2371 111.376C41.0309 111.686 40.7216 111.789 40.4124 111.789H38.5567V109.521H40.4124C40.7216 109.521 41.0309 109.727 41.2371 109.933C41.4433 110.139 41.5464 110.448 41.5464 110.655C41.5464 110.964 41.4433 111.17 41.2371 111.376Z" fill="#151101"/>
<path d="M46.9072 108.593L44.8453 115.088H45.8763L46.1855 113.954H49.0721L49.4845 115.088H50.5154L48.4536 108.593H46.9072ZM46.4948 113.026L47.6288 109.521L48.7629 113.026H46.4948Z" fill="#151101"/>
<path fill-rule="evenodd" clip-rule="evenodd" d="M56.8041 111.995C56.4948 111.686 56.1855 111.582 55.567 111.376L54.433 111.067C54.1237 110.964 53.8144 110.861 53.6082 110.655C53.5051 110.552 53.402 110.345 53.402 110.242C53.402 110.036 53.5051 109.727 53.8144 109.624C54.0206 109.521 54.3299 109.418 54.6391 109.418C54.9484 109.418 55.2577 109.521 55.4639 109.624C55.7732 109.83 55.9794 110.139 56.1855 110.448L57.2165 110.139C57.0103 109.521 56.5979 109.005 55.9794 108.696C55.567 108.49 55.0515 108.387 54.6391 108.387C54.2268 108.387 53.7113 108.387 53.2989 108.696C52.6804 109.005 52.268 109.521 52.268 110.242C52.268 110.655 52.4742 111.17 52.7835 111.479C53.0928 111.789 53.5051 111.892 54.0206 112.098L55.2577 112.407C55.567 112.51 55.7732 112.613 55.9794 112.716C56.1855 112.82 56.1855 113.026 56.1855 113.232C56.1855 113.438 56.0824 113.747 55.8763 113.851C55.567 114.057 55.1546 114.16 54.7422 114.16C54.2268 114.16 53.7113 113.954 53.402 113.541C53.1958 113.335 53.0928 113.026 53.0928 112.716L52.0618 113.026C52.1649 113.438 52.3711 113.851 52.5773 114.263C53.0928 114.881 53.8144 115.191 54.7422 115.191C55.3608 115.191 55.9794 115.088 56.4948 114.778C57.0103 114.469 57.3196 113.851 57.3196 113.335C57.4227 112.82 57.2165 112.407 56.8041 111.995Z" fill="#151101"/>
<path fill-rule="evenodd" clip-rule="evenodd" d="M64.2268 111.995C63.9176 111.686 63.6083 111.582 62.9897 111.376L61.8557 111.067C61.5464 110.964 61.2371 110.861 61.031 110.655C60.9279 110.552 60.8248 110.345 60.8248 110.242C60.8248 110.036 60.9279 109.727 61.2371 109.624C61.4433 109.521 61.7526 109.418 62.0619 109.418C62.3712 109.418 62.6804 109.521 62.8866 109.624C63.1959 109.83 63.4021 110.139 63.6083 110.448L64.6392 110.139C64.433 109.521 64.0206 109.005 63.4021 108.696C62.9897 108.49 62.4742 108.387 62.0619 108.387C61.6495 108.387 61.134 108.387 60.7217 108.696C60.1031 109.005 59.6907 109.521 59.6907 110.242C59.6907 110.655 59.8969 111.17 60.2062 111.479C60.5155 111.789 60.9279 111.892 61.4433 112.098L62.6804 112.407C62.9897 112.51 63.1959 112.613 63.4021 112.716C63.6083 112.82 63.6083 113.026 63.6083 113.232C63.6083 113.438 63.5052 113.747 63.299 113.851C62.9897 114.057 62.5773 114.16 62.165 114.16C61.6495 114.16 61.134 113.954 60.8248 113.541C60.6186 113.335 60.5155 113.026 60.5155 112.716L59.4846 113.026C59.5877 113.438 59.7938 113.851 60 114.263C60.5155 114.881 61.2371 115.191 62.165 115.191C62.7835 115.191 63.4021 115.088 63.9175 114.778C64.433 114.469 64.7423 113.851 64.7423 113.335C64.7423 112.82 64.5361 112.407 64.2268 111.995Z" fill="#151101"/>
<path fill-rule="evenodd" clip-rule="evenodd" d="M67.3196 115.088H71.5464V114.057H68.3505V112.304H71.0309V111.273H68.3505V109.521H71.5464V108.593H67.3196V115.088Z" fill="#151101"/>
<path d="M78.9691 111.995C79.2783 111.686 79.3814 111.17 79.3814 110.655C79.3814 110.139 79.1753 109.727 78.866 109.314C78.6598 109.005 78.2474 108.799 77.8351 108.593C77.6289 108.49 77.4227 108.49 77.1134 108.49H74.2268V114.985H75.2577V112.613H77.0103L78.1443 114.985H79.3814L78.1443 112.407C78.4536 112.407 78.7629 112.201 78.9691 111.995ZM78.1443 111.376C77.9381 111.686 77.6289 111.789 77.3196 111.789H75.4639V109.521H77.3196C77.6289 109.521 77.9381 109.727 78.1443 109.933C78.3505 110.139 78.4536 110.448 78.4536 110.655C78.3505 110.964 78.2474 111.17 78.1443 111.376Z" fill="#151101"/>
<path d="M83.0928 108.593H82.0619V115.088H83.0928V108.593Z" fill="#151101"/>
<path fill-rule="evenodd" clip-rule="evenodd" d="M86.598 115.088H90.7217V114.057H87.6289V112.304H90.2062V111.273H87.6289V109.521H90.7217V108.593H86.598V115.088Z" fill="#151101"/>
<path fill-rule="evenodd" clip-rule="evenodd" d="M17.8351 93.4382C17.8351 96.7372 14.8454 100.036 11.6495 100.036H7.83505V74.7784H11.2371V74.2629H0V74.6753H2.98969V100.036H0V100.449H18.3505V90.964H17.8351V93.4382Z" fill="#151101"/>
<path d="M39.6908 97.0464V94.1598H39.2784V97.0464C39.2784 98.799 38.6598 99.4176 37.8351 99.4176C36.7011 99.4176 36.3918 98.5928 36.3918 96.3248V86.9434C36.3918 82.9227 33.7114 81.3763 28.866 81.3763C24.3299 81.3763 21.6495 83.232 21.6495 85.6031C21.6495 87.1495 22.8866 87.8712 24.1237 87.8712C25.3609 87.8712 26.7011 87.0464 26.7011 85.6031C26.7011 84.4691 26.0825 83.6444 24.9485 83.3351C24.8454 83.232 24.8454 83.232 24.8454 83.0258C24.8454 82.9227 24.9485 82.7165 25.1547 82.6135C25.8763 82.2011 26.9072 81.7887 28.2475 81.7887C30.6186 81.7887 31.8557 82.8196 31.8557 85.5001V90.2423C30.7217 89.933 29.3815 89.8299 28.1444 89.8299C23.7114 89.8299 20.7217 91.7887 20.7217 95.6031C20.7217 98.6959 22.8866 100.655 26.0825 100.655C29.4846 100.655 31.6495 98.6959 32.0619 96.3248C32.0619 99.1083 33.1959 100.552 35.9794 100.552C38.866 100.758 39.6908 99.1083 39.6908 97.0464ZM31.8557 94.2629C31.8557 97.5619 29.8969 99.4176 28.1444 99.4176C26.4949 99.4176 25.567 98.4897 25.567 95.2939C25.567 92.2011 26.8042 90.5516 29.4846 90.5516C30.3093 90.5516 31.2371 90.6547 31.9588 90.8609V94.2629H31.8557Z" fill="#151101"/>
<path fill-rule="evenodd" clip-rule="evenodd" d="M63.8144 100.036V100.449H71.0309V87.665C71.0309 83.9537 69.6907 81.3763 66.0825 81.3763C62.9897 81.3763 60.1031 83.8506 59.3814 87.1495C59.1752 83.5413 57.835 81.3763 54.433 81.3763C51.3402 81.3763 48.5567 83.8506 47.835 86.9434V81.7887H40.2062V82.2011H43.299V100.036H40.2062V100.449H50.2062V100.036H47.835V90.0361C47.835 85.7062 50.5155 82.6135 52.5773 82.6135C54.0206 82.6135 54.8454 83.6444 54.8454 85.7062V100.036H52.1649V100.449H61.7526V100.036H59.3814V89.7269C59.4845 85.6031 62.0618 82.6135 64.1237 82.6135C65.567 82.6135 66.4948 83.5413 66.4948 85.6031V100.036H63.8144Z" fill="#151101"/>
<path fill-rule="evenodd" clip-rule="evenodd" d="M100.206 81.7887H92.5773V82.2011H95.6701V100.036H92.5773V100.448H103.299V100.036H100.206V81.7887Z" fill="#151101"/>
<path fill-rule="evenodd" clip-rule="evenodd" d="M97.9382 79.8299C99.4846 79.8299 100.515 78.6959 100.515 77.2526C100.515 75.7062 99.3815 74.5721 97.9382 74.5721C96.3918 74.5721 95.2578 75.7062 95.2578 77.2526C95.2578 78.7989 96.3918 79.8299 97.9382 79.8299Z" fill="#151101"/>
<path fill-rule="evenodd" clip-rule="evenodd" d="M119.072 94.1598C118.454 98.1805 115.876 100.345 112.68 100.345C109.588 100.345 108.247 97.9743 108.247 91.1702C108.247 83.9537 109.897 81.7887 112.99 81.7887C114.33 81.7887 115.464 82.2011 116.082 82.9227C116.186 83.0258 116.289 83.1289 116.289 83.3351C116.289 83.4382 116.289 83.5413 116.082 83.6444C114.948 83.9537 114.33 84.9846 114.33 86.1186C114.33 87.7681 115.567 88.5928 116.804 88.5928C118.041 88.5928 119.278 87.7681 119.278 86.1186C119.278 83.5413 116.701 81.3763 112.268 81.3763C106.804 81.3763 103.299 85.1908 103.299 91.1702C103.299 97.2526 106.907 100.861 112.68 100.861C116.186 100.861 118.969 98.6959 119.588 94.1598H119.072Z" fill="#151101"/>
<path d="M84.6392 81.3763C81.8557 81.3763 79.7938 82.7165 78.9691 85.9124V74.2629H71.3402V74.6753H74.433V100.449H74.8454C75.567 99.0052 77.732 97.1495 78.9691 96.7372C79.8969 99.4176 81.8557 100.758 84.5361 100.758C88.866 100.758 92.1649 97.0464 92.1649 90.964C92.268 84.6753 89.0722 81.3763 84.6392 81.3763ZM83.1959 99.8299C80.5155 99.8299 78.9691 96.9434 78.9691 92.9227V89.1083C78.9691 85.2939 80.6186 82.3042 83.1959 82.3042C85.8763 82.3042 87.0103 84.8815 87.0103 91.0671C87.0103 96.7372 85.6701 99.8299 83.1959 99.8299Z" fill="#151101"/>
<path fill-rule="evenodd" clip-rule="evenodd" d="M48.3505 27.2526C48.2474 27.2526 48.1444 27.3557 48.0413 27.3557C48.1444 27.3557 48.2474 27.3557 48.2474 27.4588C48.3505 27.4588 48.3505 27.5619 48.4536 27.5619C48.4536 27.5619 48.4536 27.665 48.5567 27.665C48.5567 27.665 48.6598 27.665 48.6598 27.7681C48.5567 27.8712 48.4536 27.8712 48.3505 27.9743C48.2474 28.0774 48.1444 28.1805 48.0413 28.3866C48.2474 28.3866 48.4536 28.3866 48.5567 28.2836C48.7629 28.1805 48.7629 28.0774 48.866 27.8712C48.866 27.8712 48.866 27.7681 48.9691 27.7681V27.665C48.9691 27.5619 49.0722 27.5619 49.0722 27.4588C49.1753 27.3557 49.2784 27.2526 49.3815 27.1495C49.1753 27.1495 49.0722 27.2526 48.9691 27.3557C48.9691 27.2526 48.7629 27.1495 48.6598 27.1495C48.5567 27.1495 48.4536 27.1495 48.3505 27.2526Z" fill="#151101"/>
<path fill-rule="evenodd" clip-rule="evenodd" d="M46.3917 27.6649C46.5979 27.5618 46.8041 27.4587 46.9072 27.4587C47.0103 27.4587 47.1134 27.4587 47.2165 27.4587C47.3196 27.4587 47.4226 27.4587 47.5257 27.4587C47.6288 27.4587 47.835 27.3556 47.9381 27.2525C48.0412 27.1494 48.0412 27.1494 48.1443 27.0463C48.2474 26.9433 48.2474 26.8402 48.5567 26.7371C48.4536 26.634 48.3505 26.5309 48.2474 26.5309C48.1443 26.5309 47.9381 26.634 47.835 26.634C47.7319 26.7371 47.6288 26.7371 47.6288 26.8402C47.6288 26.9433 47.5257 26.9433 47.5257 26.9433C47.4226 26.9433 47.3196 26.9433 47.2165 27.0463C47.1134 27.0463 47.0103 27.1494 46.9072 27.1494C46.701 27.3556 46.4948 27.4587 46.3917 27.6649Z" fill="#151101"/>
<path d="M32.5773 27.8711C32.6804 27.8711 32.6804 27.9742 32.5773 27.8711C32.5773 27.9742 32.4743 28.0773 32.4743 28.1804C32.2681 28.3866 32.2681 28.6959 32.3712 29.0052C32.4743 29.2113 32.5773 29.5206 32.7835 29.7268C32.8866 29.8299 32.9897 29.933 33.1959 30.0361C33.0928 30.1392 33.0928 30.3454 32.9897 30.4485C32.8866 30.6546 32.8866 30.9639 32.8866 31.1701C32.8866 31.2732 32.8866 31.4794 32.9897 31.5825C33.0928 31.6856 33.0928 31.8918 33.299 31.9948C33.4021 32.0979 33.6083 32.0979 33.7114 32.0979C33.7114 32.201 33.7114 32.3041 33.7114 32.3041C33.7114 32.4072 33.7114 32.5103 33.8145 32.7165C33.9176 32.8196 33.9176 32.9227 34.0206 33.0258C34.2268 33.232 34.433 33.3351 34.6392 33.3351C34.7423 33.3351 34.8454 33.3351 34.9485 33.3351C34.9485 33.5412 34.9485 33.7474 34.9485 33.8505C34.9485 34.1598 35.0516 34.4691 35.2578 34.7784C35.3609 34.8814 35.4639 35.0876 35.6701 35.0876C35.7732 35.1907 35.9794 35.1907 36.1856 35.1907C36.2887 35.1907 36.4949 35.0876 36.598 35.0876V35.1907C36.598 35.2938 36.7011 35.3969 36.8041 35.5C36.9072 35.6031 37.0103 35.6031 37.1134 35.6031C37.2165 35.6031 37.3196 35.6031 37.4227 35.6031C37.5258 35.6031 37.5258 35.6031 37.6289 35.5C37.6289 35.5 37.6289 35.5 37.6289 35.6031C37.732 35.7062 37.8351 35.9124 37.9382 35.9124C38.0413 36.0155 38.2475 36.0155 38.4536 35.9124H38.5567C38.5567 35.9124 38.5567 36.0155 38.6598 36.0155C38.7629 36.1186 38.866 36.2216 39.0722 36.3247C39.2784 36.4278 39.4846 36.3247 39.5877 36.2216C39.6907 36.1186 39.7938 36.1186 39.7938 36.0155C39.8969 36.0155 39.8969 36.0155 40 36.0155C40.1031 36.0155 40.1031 36.1186 40.2062 36.1186C40.3093 36.2216 40.4124 36.4278 40.4124 36.5309C40.4124 36.634 40.3093 36.8402 40.2062 37.0464C40.1031 37.1495 39.8969 37.3557 39.7938 37.4588L39.6908 37.5619C39.6908 37.6649 39.6907 37.768 39.7938 37.8711C40.2062 37.9742 40.6186 38.0773 41.031 38.0773C41.4433 38.0773 41.8557 37.9742 42.2681 37.768C42.4743 37.6649 42.6804 37.5619 42.7835 37.3557C42.8866 37.1495 42.9897 36.9433 43.0928 36.7371C43.0928 36.5309 43.0928 36.3247 43.0928 36.0155V35.9124C43.1959 35.9124 43.299 35.9124 43.5052 35.9124C43.7114 35.9124 43.8145 35.8093 43.9176 35.7062C44.0206 35.6031 44.1237 35.5 44.2268 35.2938C44.3299 34.9845 44.3299 34.7784 44.3299 34.4691C44.3299 34.2629 44.3299 34.0567 44.2268 33.8505C44.3299 33.8505 44.433 33.7474 44.5361 33.7474C44.7423 34.1598 44.9485 34.4691 45.1547 34.8814C45.2578 35.1907 45.3609 35.3969 45.3609 35.7062C45.3609 36.0155 45.3609 36.3247 45.3609 36.5309C45.3609 37.1495 45.3609 37.6649 45.567 38.2835C45.6701 38.9021 45.9794 39.4175 46.2887 39.933C46.598 40.4485 47.0103 40.8608 47.4227 41.2732C47.8351 41.6856 48.3505 41.9948 48.6598 42.4072C49.4846 43.232 50.2062 44.1598 50.6186 45.1907C50.8248 45.7062 50.9279 46.2216 51.031 46.8402C51.031 46.9433 51.031 47.1495 51.031 47.2526V47.6649C51.031 47.9742 50.9279 48.1804 50.9279 48.4897C50.8248 49.0052 50.7217 49.6237 50.6186 50.1392C50.5155 50.4485 50.4124 50.6546 50.3093 50.9639C50.2062 51.1701 50.1031 51.4794 49.8969 51.6856C49.7938 51.8918 49.6907 52.201 49.4846 52.4072C49.3815 52.6134 49.1753 52.8196 48.9691 53.0258C48.5567 53.4381 48.1444 53.7474 47.6289 54.0567C47.4227 54.1598 47.1134 54.2629 46.8041 54.2629C46.4949 54.366 46.1856 54.366 45.9794 54.5722C45.6701 54.6753 45.3609 54.8814 45.1547 55.0876C44.9485 55.2938 44.8454 55.5 44.6392 55.8093C44.433 55.8093 44.2268 55.9124 44.1237 55.9124C43.9176 55.9124 43.7114 55.9124 43.4021 55.9124C42.9897 55.9124 42.4743 55.8093 42.165 55.6031C41.7526 55.3969 41.5464 55.0876 41.3402 54.6753C41.2371 54.4691 41.2371 54.2629 41.134 54.0567C41.134 53.8505 41.134 53.6443 41.2371 53.4381C41.3402 53.0258 41.5464 52.6134 41.8557 52.3041C42.165 51.9948 42.5773 51.7887 42.9897 51.7887C43.0928 51.7887 43.1959 51.7887 43.299 51.7887C43.4021 51.7887 43.5052 51.7887 43.6083 51.7887C43.8145 51.7887 44.0206 51.8918 44.2268 51.8918C44.433 51.9948 44.6392 52.0979 44.7423 52.201C44.8454 52.3041 44.8454 52.3041 44.9485 52.4072C45.0516 52.5103 45.0516 52.6134 45.0516 52.6134C45.0516 52.7165 45.1547 52.8196 45.2578 52.8196C45.3609 52.8196 45.4639 52.7165 45.567 52.6134C45.567 52.4072 45.567 52.201 45.567 51.9948C45.567 51.7887 45.4639 51.5825 45.3609 51.3763C45.2578 51.1701 45.0516 50.9639 44.9485 50.8608C44.8454 50.7577 44.6392 50.6546 44.5361 50.5515C44.5361 50.4485 44.433 50.3454 44.433 50.2423C44.3299 50.1392 44.2268 50.0361 44.1237 49.933C43.9176 49.7268 43.6083 49.7268 43.4021 49.7268C42.8866 49.6237 42.4743 49.7268 41.9588 49.7268C41.4433 49.8299 41.031 50.0361 40.6186 50.2423C40.4124 50.3454 40.2062 50.5515 40 50.6546C39.8969 50.7577 39.6907 50.8608 39.5877 51.067C39.4846 51.067 39.3815 51.067 39.3815 51.067C39.2784 51.067 39.0722 51.067 38.9691 51.1701C38.6598 51.3763 38.5567 51.5825 38.4536 51.8918C38.3505 52.0979 38.3505 52.4072 38.4536 52.7165C38.4536 52.8196 38.5567 53.0258 38.5567 53.1289C38.5567 53.232 38.6598 53.232 38.6598 53.3351C38.3505 54.0567 38.2474 54.8814 38.2474 55.6031C38.3505 56.4278 38.6598 57.2526 39.2784 57.8711L39.7938 58.2835L40.3093 58.5928C40.5155 58.6959 40.7217 58.799 40.9279 58.799C41.134 58.9021 41.3402 58.9021 41.5464 59.0052C42.3712 59.2113 43.1959 59.1082 44.0206 58.799C44.8454 58.4897 45.4639 58.0773 46.1856 57.5619C46.8041 57.0464 47.4227 56.5309 48.0413 56.0155C48.3505 55.7062 48.6598 55.5 48.9691 55.1907C49.2784 54.9845 49.5877 54.7784 49.8969 54.5722C50.2062 54.4691 50.4124 54.2629 50.7217 54.1598C50.7217 54.2629 50.7217 54.366 50.7217 54.4691C50.7217 54.6753 50.8248 54.8814 50.9279 55.0876C51.031 55.2938 51.134 55.5 51.3402 55.6031C51.4433 55.7062 51.6495 55.9124 51.8557 56.0155C51.6495 56.5309 51.6495 57.0464 51.7526 57.4588C51.8557 57.9742 52.0619 58.3866 51.9588 58.9021C51.8557 59.3144 51.5464 59.6237 51.134 59.8299C50.7217 60.0361 50.2062 60.1392 49.6908 60.1392C49.5877 60.1392 49.3815 60.1392 49.2784 60.2423C49.1753 60.3454 48.9691 60.3454 48.866 60.5515C48.7629 60.6546 48.6598 60.7577 48.6598 60.9639C48.5567 61.067 48.5567 61.2732 48.5567 61.3763C48.5567 61.6856 48.5567 61.9948 48.6598 62.201C48.7629 62.4072 48.7629 62.7165 48.866 62.9227C49.0722 63.8505 49.1753 64.8814 49.0722 65.8093C49.0722 66.3247 48.9691 66.7371 48.866 67.2526C48.866 67.4588 48.7629 67.768 48.7629 68.0773C48.7629 68.3866 48.7629 68.5928 48.866 68.9021C48.9691 69.2113 49.0722 69.5206 49.2784 69.6237C49.3815 69.7268 49.4846 69.8299 49.5877 69.8299C49.6907 69.933 49.8969 69.933 50 70.0361C50.1031 70.0361 50.3093 70.0361 50.3093 70.1392C50.4124 70.1392 50.4124 70.2423 50.5155 70.2423C50.6186 70.3454 50.7217 70.6546 50.8248 70.8608C51.031 71.3763 51.2371 71.7887 51.6495 72.201C51.8557 72.4072 51.9588 72.6134 52.2681 72.8196C52.4743 73.0258 52.7835 73.1289 52.9897 73.1289C53.5052 73.232 54.0206 73.232 54.5361 73.232C54.8454 73.232 55.0516 73.232 55.3609 73.232C55.6701 73.232 55.8763 73.1289 56.1856 73.0258C56.1856 73.0258 56.1856 73.0258 56.2887 73.0258C56.3918 72.9227 56.3918 72.8196 56.2887 72.8196C55.7732 72.3041 55.2578 71.7887 54.7423 71.2732C54.2268 70.7577 53.7114 70.2423 53.299 69.6237C52.8866 69.0052 52.4743 68.3866 52.165 67.768C51.9588 67.1495 51.7526 66.4278 51.8557 65.7062C51.9588 64.9845 52.2681 64.366 52.7835 63.7474C53.1959 63.232 53.8145 62.7165 54.433 62.3041C55.0516 61.8918 55.7732 61.5825 56.2887 61.1701C56.598 60.9639 56.9072 60.7577 57.1134 60.4485C57.2165 60.3454 57.3196 60.1392 57.4227 59.933C57.5258 59.7268 57.5258 59.6237 57.5258 59.4175C57.732 59.3144 57.9382 59.2113 58.1444 59.1082C58.3505 59.0052 58.5567 58.9021 58.7629 58.6959C58.9691 58.4897 59.0722 58.2835 59.1753 58.0773C59.2784 57.8711 59.3815 57.768 59.4846 57.5619L59.8969 57.8711C60 57.9742 60.2062 58.0773 60.3093 58.1804C60.3093 58.1804 60.4124 58.1804 60.4124 58.2835H60.5155C60.5155 58.2835 60.5155 58.2835 60.6186 58.2835C60.7217 58.2835 60.8248 58.2835 60.9279 58.2835C61.134 58.2835 61.2371 58.2835 61.3402 58.3866C61.4433 58.4897 61.5464 58.5928 61.5464 58.6959C61.6495 59.0052 61.7526 59.3144 61.8557 59.6237C61.9588 59.933 61.9588 60.2423 62.0619 60.6546C62.0619 60.8608 62.165 60.9639 62.2681 61.1701C62.3712 61.3763 62.5773 61.4794 62.7835 61.5825C62.9897 61.5825 63.1959 61.5825 63.299 61.5825C63.5052 61.5825 63.6083 61.5825 63.8145 61.5825C64.1237 61.5825 64.433 61.5825 64.8454 61.5825C65.4639 61.6856 66.1856 61.7887 66.8041 61.9948C67.4227 62.201 68.0413 62.4072 68.6598 62.6134C68.9691 62.7165 69.2784 62.9227 69.5877 63.0258C69.8969 63.1289 70.2062 63.3351 70.6186 63.3351C71.3402 63.3351 71.9588 63.0258 72.6804 63.0258C72.9897 63.0258 73.299 63.0258 73.5052 63.3351C73.7114 63.5412 73.9176 63.8505 74.1237 64.1598C74.3299 64.4691 74.5361 64.6753 74.8454 64.9845C75.1547 65.1907 75.4639 65.3969 75.7732 65.5C75.9794 65.6031 76.0825 65.6031 76.2887 65.7062C76.4949 65.7062 76.598 65.8093 76.8041 65.8093C77.1134 65.8093 77.5258 65.8093 77.8351 65.7062C78.5567 65.5 79.1753 65.1907 79.5877 64.5722C79.5877 64.4691 79.5877 64.4691 79.5877 64.366L76.1856 62.201C75.6701 61.5825 74.9485 61.067 74.2268 60.7577C73.8145 60.6546 73.4021 60.5515 72.9897 60.5515L71.7526 60.4485C70.9279 60.3454 70.1031 60.2423 69.3815 60.0361C68.9691 59.933 68.6598 59.7268 68.2474 59.5206C67.9382 59.3144 67.6289 59.0052 67.4227 58.6959C67.3196 58.4897 67.3196 58.3866 67.2165 58.1804C67.2165 57.9742 67.2165 57.768 67.2165 57.5619C67.2165 57.1495 67.2165 56.7371 67.3196 56.3247C67.3196 55.9124 67.4227 55.5 67.4227 55.0876C67.4227 54.6753 67.4227 54.2629 67.3196 53.8505C67.3196 53.6443 67.2165 53.4381 67.1134 53.232C67.0103 53.0258 66.8042 52.9227 66.7011 52.8196C66.3918 52.5103 66.0825 52.3041 65.7732 52.0979C65.1547 51.5825 64.433 51.1701 63.8145 50.7577C64.433 49.933 64.8454 48.9021 65.1547 47.8711C65.2578 47.3557 65.3609 46.8402 65.3609 46.2216C65.3609 45.7062 65.2578 45.1907 65.0516 44.6753C64.8454 44.1598 64.5361 43.7474 64.2268 43.3351C63.9176 42.9227 63.5052 42.5103 63.0928 42.201C62.3712 41.4794 61.6495 40.8608 60.8248 40.3454C60.9279 40.3454 61.134 40.2423 61.2371 40.2423C61.5464 40.1392 61.9588 40.0361 62.2681 39.8299C62.5773 39.6237 62.8866 39.4175 63.1959 39.2113C63.7114 38.6959 64.1237 38.0773 64.433 37.4588C64.7423 36.8402 64.9485 36.1186 65.1547 35.5C65.3609 34.8814 65.567 34.1598 65.7732 33.5412L65.8763 33.0258L65.9794 32.8196C65.9794 32.7165 65.9794 32.7165 65.9794 32.7165V32.6134C66.0825 32.3041 66.2887 31.9948 66.4949 31.6856C66.8041 31.067 67.0103 30.3454 67.1134 29.6237C67.2165 29.2113 67.3196 28.799 67.3196 28.3866C69.4846 28.0773 71.5464 27.6649 73.7114 27.3557C74.8454 27.1495 75.8763 27.0464 77.0103 26.9433L77.8351 26.8402C78.1444 26.8402 78.3505 26.8402 78.6598 26.8402C79.1753 26.9433 79.6908 27.0464 80 27.4588H80.1031C80.2062 27.4588 80.2062 27.4588 80.2062 27.3557C80.2062 26.9433 80.2062 26.5309 80.2062 26.1186C80.2062 25.7062 80.1031 25.2938 80 24.8814C79.8969 24.4691 79.7938 24.0567 79.6907 23.6443C79.5877 23.232 79.3815 22.8196 79.1753 22.5103C79.1753 22.5103 79.0722 22.5103 79.0722 22.6134C78.866 23.1289 78.4536 23.4381 78.0413 23.7474C77.3196 23.8505 76.8041 23.9536 76.2887 24.1598C75.2578 24.4691 74.2268 24.7784 73.1959 25.0876C71.2371 25.6031 69.1753 26.1186 67.2165 26.634C67.2165 26.5309 67.2165 26.4278 67.2165 26.4278C67.2165 26.2217 67.1134 26.0155 67.0103 25.8093C67.0103 25.6031 67.0103 25.6031 66.8041 25.5C66.7011 25.3969 66.4949 25.3969 66.3918 25.3969C66.2887 25.3969 66.1856 25.5 66.0825 25.6031C65.9794 25.7062 65.9794 25.8093 65.8763 25.9124C65.7732 26.1186 65.7732 26.3247 65.7732 26.5309C65.7732 26.634 65.7732 26.634 65.7732 26.7371C65.6701 26.7371 65.6701 26.8402 65.567 26.8402C65.567 26.8402 65.4639 26.8402 65.4639 26.9433C65.3609 26.7371 65.1547 26.5309 64.9485 26.5309C64.8454 26.5309 64.7423 26.5309 64.6392 26.5309C64.5361 26.5309 64.433 26.634 64.3299 26.634C64.2268 26.7371 64.1237 26.8402 64.1237 26.9433C64.0206 26.8402 64.0206 26.8402 63.9176 26.7371C64.0206 26.634 64.1237 26.5309 64.2268 26.4278C64.3299 26.2217 64.3299 26.0155 64.433 25.8093C64.433 25.6031 64.5361 25.3969 64.5361 25.1907C64.5361 25.0876 64.5361 24.8814 64.5361 24.7784C66.3918 23.9536 68.2474 23.1289 70.2062 22.4072C71.5464 21.8918 72.8866 21.2732 74.3299 20.7577C75.0516 20.4485 75.6701 20.2423 76.3918 20.0361C77.0103 19.8299 77.8351 19.8299 78.3505 20.2423H78.4536C78.5567 20.2423 78.5567 20.1392 78.5567 20.0361C78.4536 19.6237 78.3505 19.2113 78.2474 18.799C78.1444 18.3866 77.9382 17.9742 77.732 17.6649C77.5258 17.2526 77.3196 16.9433 77.1134 16.5309C76.9072 16.2216 76.598 15.8093 76.2887 15.5C76.2887 15.5 76.2887 15.5 76.1856 15.5C76.0825 15.5 76.0825 15.5 76.0825 15.6031C75.9794 16.1186 75.6701 16.634 75.2578 16.9433C75.0516 17.1495 74.8454 17.3557 74.5361 17.4588C74.5361 17.4588 74.5361 17.4588 74.433 17.4588C73.0928 18.2835 70.7217 19.6237 67.9382 21.1701C66.9072 21.6856 65.8763 22.3041 64.7423 22.8196C64.0206 23.232 63.1959 23.6443 62.3712 24.0567C62.7835 24.0567 62.8866 23.7474 62.8866 23.4381H62.9897C63.0928 23.4381 63.0928 23.4381 63.1959 23.4381C63.299 23.3351 63.4021 23.232 63.5052 23.1289C63.6083 22.9227 63.6083 22.6134 63.6083 22.4072C63.6083 22.6134 63.5052 22.8196 63.4021 23.0258C63.299 23.1289 63.299 23.1289 63.1959 23.232H63.0928C63.0928 23.232 62.9897 23.232 62.9897 23.1289C62.8866 23.0258 62.8866 22.7165 62.8866 22.5103C62.8866 22.3041 62.8866 22.0979 62.9897 21.8918C62.9897 21.7887 63.0928 21.6856 63.1959 21.6856C63.299 21.6856 63.299 21.5825 63.4021 21.5825C63.5052 21.5825 63.5052 21.5825 63.6083 21.6856C63.6083 21.6856 63.7114 21.6856 63.7114 21.7887L63.8145 21.8918C64.0206 22.201 64.2268 22.6134 64.433 23.1289C64.433 22.9227 64.433 22.6134 64.433 22.4072C64.433 22.201 64.3299 21.8918 64.2268 21.6856C63.9176 21.5825 63.9176 21.4794 63.7114 21.3763C63.6083 21.3763 63.6083 21.2732 63.5052 21.2732C63.4021 21.2732 63.299 21.2732 63.1959 21.2732C62.9897 21.2732 62.8866 21.3763 62.7835 21.4794C62.6804 21.5825 62.5773 21.6856 62.5773 21.8918C62.4743 22.201 62.4743 22.4072 62.4743 22.6134C62.4743 22.6134 62.4743 22.6134 62.4743 22.7165C62.3712 22.7165 62.2681 22.6134 62.165 22.6134C61.9588 22.6134 61.7526 22.6134 61.5464 22.7165C61.5464 22.7165 61.5464 22.7165 61.4433 22.7165C61.4433 22.7165 61.4433 22.7165 61.3402 22.8196C61.3402 22.8196 61.3402 22.8196 61.3402 22.9227C61.2371 22.8196 61.134 22.8196 61.031 22.8196C60.9279 22.8196 60.8248 22.8196 60.7217 22.7165C60.6186 22.7165 60.5155 22.7165 60.3093 22.7165L60.2062 22.8196C60.1031 22.7165 60 22.6134 59.8969 22.6134C59.7938 22.6134 59.5877 22.6134 59.4846 22.6134C59.3815 22.6134 59.1753 22.7165 59.0722 22.8196C58.9691 22.9227 58.866 23.0258 58.866 23.232C58.866 23.3351 58.866 23.5412 58.866 23.6443C58.866 23.8505 58.9691 24.0567 58.9691 24.366V24.5722V24.7784C58.9691 24.8814 59.0722 24.9845 59.0722 25.0876C59.1753 25.1907 59.1753 25.2938 59.2784 25.3969C59.3815 25.5 59.4846 25.6031 59.6908 25.6031C60 25.6031 60.2062 25.3969 60.3093 25.1907C60.3093 25.0876 60.3093 25.0876 60.3093 24.9845L60.4124 25.0876C60.8248 24.7784 60.9279 24.7784 61.031 24.7784C61.134 24.7784 61.2371 24.7784 61.3402 24.6753C61.4433 24.5722 61.5464 24.5722 61.5464 24.4691C61.6495 24.366 61.6495 24.2629 61.6495 24.1598C61.7526 24.2629 61.7526 24.2629 61.8557 24.366C61.9588 24.366 62.0619 24.366 62.165 24.366C60.2062 25.3969 58.2474 26.4278 56.1856 27.4588C54.433 28.2835 53.4021 28.9021 53.4021 28.9021C53.1959 29.0052 52.8866 29.1082 52.6804 29.2113C52.6804 29.2113 52.6804 29.1082 52.5773 29.1082C52.5773 29.1082 52.5773 29.0052 52.4743 29.0052L52.5773 28.9021L52.4743 28.799C52.3712 28.6959 52.2681 28.6959 52.2681 28.5928C52.0619 28.4897 51.9588 28.3866 51.7526 28.2835C51.6495 28.1804 51.5464 28.1804 51.4433 28.0773C51.5464 27.8711 51.6495 27.768 51.6495 27.5619C51.6495 27.4588 51.6495 27.3557 51.6495 27.2526C51.6495 27.1495 51.6495 27.0464 51.5464 26.9433L51.4433 26.8402C51.4433 26.8402 51.3402 26.8402 51.3402 26.7371C51.2371 26.7371 51.134 26.634 51.031 26.7371C50.8248 26.7371 50.8248 26.7371 50.7217 26.7371C50.6186 26.7371 50.5155 26.7371 50.4124 26.634C50.2062 26.5309 49.8969 26.4278 49.6908 26.3247C49.4846 26.2216 49.3815 26.0155 49.1753 25.8093C49.0722 25.7062 49.0722 25.6031 48.9691 25.5C48.866 25.3969 48.7629 25.2938 48.7629 25.1907C48.4536 24.7784 48.0413 24.5722 47.5258 24.4691C47.5258 24.2629 47.4227 24.0567 47.3196 23.8505C47.4227 23.7474 47.6289 23.6443 47.8351 23.4381C47.9382 23.3351 47.9382 23.1289 47.9382 23.0258C47.9382 22.9227 47.8351 22.7165 47.8351 22.6134C47.732 22.4072 47.5258 22.201 47.3196 21.9948C47.1134 21.7887 46.9072 21.6856 46.7011 21.5825C46.8042 21.4794 46.9072 21.3763 46.9072 21.2732C47.0103 21.1701 46.9072 20.9639 46.8041 20.8608C46.598 20.6546 46.3918 20.5515 46.0825 20.4485C45.7732 20.3454 45.567 20.3454 45.2578 20.3454C45.1547 20.3454 44.9485 20.3454 44.8454 20.3454C44.7423 20.3454 44.7423 20.3454 44.6392 20.3454H44.5361C44.5361 19.933 44.3299 19.5206 44.0206 19.1082C43.7114 18.6959 43.299 18.4897 42.8866 18.2835C42.4743 18.0773 41.9588 17.9742 41.5464 17.9742C41.031 17.9742 40.6186 17.9742 40.1031 18.1804C40 18.1804 40 18.2835 40 18.2835C40 18.3866 40 18.4897 40.1031 18.4897C40.2062 18.5928 40.5155 18.5928 40.7217 18.6959C40.9279 18.799 41.134 18.9021 41.3402 19.1082C41.5464 19.2113 41.6495 19.4175 41.8557 19.6237C41.9588 19.7268 41.9588 19.8299 42.0619 19.933L42.165 20.0361C41.9588 20.1392 41.7526 20.2423 41.6495 20.4485C41.6495 20.3454 41.5464 20.2423 41.5464 20.1392C41.4433 20.0361 41.3402 19.8299 41.2371 19.8299C40.9279 19.7268 40.5155 19.7268 40.3093 19.933C40 20.1392 39.8969 20.3454 39.6908 20.6546C39.5877 20.8608 39.4846 21.067 39.3815 21.2732C39.2784 21.1701 39.1753 21.067 39.0722 21.067C38.9691 20.9639 38.866 20.9639 38.7629 20.9639C38.6598 20.9639 38.5567 21.067 38.4536 21.067C38.2475 21.1701 38.1444 21.3763 38.0413 21.5825C37.9382 21.6856 37.9382 21.7887 37.9382 21.8918C37.8351 21.7887 37.6289 21.6856 37.4227 21.5825C37.1134 21.4794 36.8042 21.5825 36.598 21.7887C36.3918 21.9948 36.2887 22.201 36.1856 22.5103C36.0825 22.7165 36.0825 22.9227 35.9794 23.1289C35.6701 23.1289 35.4639 23.1289 35.1547 23.232C34.8454 23.3351 34.5361 23.4381 34.2268 23.5412C34.1237 23.6443 33.9176 23.7474 33.8145 23.8505C33.7114 23.9536 33.6083 24.1598 33.6083 24.366C33.6083 24.5722 33.6083 24.7783 33.7114 24.8814C33.7114 24.9845 33.8145 24.9845 33.8145 25.0876C33.6083 25.1907 33.4021 25.2938 33.0928 25.5C32.7835 25.7062 32.5773 26.0155 32.3712 26.3247C32.2681 26.5309 32.2681 26.7371 32.2681 26.8402C32.2681 27.0464 32.2681 27.2526 32.2681 27.4588C32.3712 27.5619 32.4743 27.768 32.5773 27.8711ZM60.4124 24.7784C60.4124 24.8814 60.3093 24.9845 60.2062 24.9845C60.1031 24.9845 60 25.0876 60 24.9845C59.8969 24.9845 59.6908 24.7783 59.6908 24.5722C59.6908 24.4691 59.5877 24.366 59.5877 24.2629L59.4846 23.9536C59.4846 23.7474 59.3815 23.5412 59.4846 23.3351C59.4846 23.1289 59.4846 23.0258 59.5877 22.9227C59.5877 22.9227 59.6908 22.8196 59.7938 22.8196C59.8969 22.8196 60 22.8196 60 22.7165C60.1031 22.7165 60.1031 22.7165 60.2062 22.8196C60.2062 22.8196 60.2062 22.8196 60.3093 22.8196C60.3093 22.8196 60.3093 22.8196 60.3093 22.9227C60.2062 23.0258 60.2062 23.1289 60.2062 23.232C60.2062 23.4381 60.3093 23.6443 60.3093 23.8505L60.4124 24.1598C60.4124 24.2629 60.5155 24.366 60.5155 24.4691C60.5155 24.6753 60.4124 24.6753 60.4124 24.7784ZM61.4433 24.366C61.3402 24.4691 61.2371 24.5722 61.031 24.5722C60.9279 24.5722 60.8248 24.4691 60.7217 24.366C60.7217 24.2629 60.7217 24.2629 60.6186 24.1598V23.8505C60.6186 23.6443 60.6186 23.5412 60.6186 23.3351C60.6186 23.232 60.6186 23.232 60.6186 23.1289C60.6186 23.1289 60.6186 23.0258 60.7217 23.0258C60.7217 23.0258 60.9279 22.9227 61.134 22.9227C61.2371 22.9227 61.3402 22.9227 61.3402 22.9227C61.3402 23.0258 61.3402 23.0258 61.3402 23.1289C61.3402 23.3351 61.4433 23.5412 61.4433 23.6443C61.4433 23.7474 61.5464 23.7474 61.5464 23.8505C61.5464 24.1598 61.5464 24.2629 61.4433 24.366ZM59.0722 58.3866C58.9691 58.5928 58.7629 58.799 58.6598 59.0052C58.4536 59.2113 58.2474 59.3144 58.0413 59.4175C57.8351 59.5206 57.6289 59.6237 57.3196 59.7268C57.3196 59.7268 57.3196 59.7268 57.3196 59.8299C57.3196 60.0361 57.3196 60.1392 57.2165 60.3454C57.1134 60.5515 57.0103 60.6546 56.9072 60.7577C56.7011 61.067 56.3918 61.2732 56.0825 61.4794C55.4639 61.8918 54.8454 62.201 54.2268 62.6134C53.6083 63.0258 52.9897 63.4381 52.4743 64.0567C51.9588 64.5722 51.6495 65.2938 51.5464 66.1186C51.4433 66.8402 51.5464 67.6649 51.8557 68.3866C52.165 69.1082 52.4743 69.7268 52.9897 70.3454C52.7835 70.3454 52.2681 70.4485 51.8557 70.2423C51.3402 69.933 50.8248 68.6959 50.8248 68.6959C50.8248 68.6959 51.134 68.6959 51.3402 68.3866C51.5464 68.0773 51.031 67.2526 50.9279 65.8093C50.8248 64.366 51.134 63.6443 52.0619 62.8196C52.9897 61.9948 54.0206 60.6546 54.0206 60.6546C54.0206 60.6546 54.0206 60.6546 54.6392 60.6546C55.2578 60.6546 56.0825 59.5206 56.1856 58.4897C56.2887 57.768 56.7011 57.1495 56.9072 56.9433C57.1134 56.9433 57.2165 57.0464 57.4227 57.0464C58.0413 57.1495 58.6598 57.5619 59.1753 57.9742L59.4846 58.2835C59.2784 58.0773 59.1753 58.1804 59.0722 58.3866ZM62.7835 42.201C63.5052 42.9227 64.3299 43.7474 64.6392 44.7784C64.8454 45.2938 64.9485 45.8093 64.9485 46.3247C64.9485 46.8402 64.9485 47.3557 64.7423 47.8711C64.5361 48.9021 64.0206 49.933 63.4021 50.7577V50.8608C64.1237 51.2732 64.7423 51.7887 65.3609 52.201C65.6701 52.4072 65.9794 52.7165 66.2887 52.9227C66.3918 53.0258 66.598 53.232 66.7011 53.3351C66.8042 53.5412 66.9072 53.6443 66.9072 53.8505C67.0103 54.2629 67.0103 54.6753 67.0103 55.0876C67.0103 55.5 66.9072 55.9124 66.9072 56.3247C66.9072 56.7371 66.8041 57.1495 66.8041 57.5619C66.8041 57.768 66.8041 57.9742 66.8041 58.1804C66.8041 58.3866 66.9072 58.5928 67.0103 58.799C67.2165 59.2113 67.5258 59.5206 67.8351 59.7268C68.1444 59.933 68.5567 60.1392 68.9691 60.2423C69.7938 60.4485 70.5155 60.6546 71.3402 60.7577L72.5773 60.8608C72.9897 60.8608 73.4021 60.9639 73.7114 61.067C74.433 61.3763 75.0516 61.8918 75.567 62.4072L74.7423 62.8196C74.7423 62.8196 74.9485 62.4072 74.433 61.8918C73.9176 61.3763 72.5773 61.2732 70.9279 61.3763C69.2784 61.3763 67.4227 60.2423 67.4227 60.2423C67.4227 60.2423 67.5258 59.7268 66.598 59.5206C65.1547 59.2113 65.1547 57.3557 65.3609 56.7371C65.567 55.7062 64.7423 55.2938 64.7423 55.2938C64.7423 55.2938 65.7732 53.9536 64.6392 53.232C63.299 52.4072 62.5773 51.6856 62.5773 51.6856C62.5773 51.6856 63.4021 50.6546 62.0619 49.5206C61.2371 48.799 63.5052 47.1495 58.6598 44.6753C53.8145 42.201 52.3712 40.5515 52.3712 40.5515L53.0928 40.4485C53.6083 40.4485 54.1237 40.5515 54.6392 40.5515C55.3609 40.5515 56.0825 40.5515 56.7011 40.5515C57.4227 40.5515 58.1444 40.4485 58.7629 40.3454C59.2784 40.2423 59.7938 40.2423 60.3093 40.0361C61.3402 40.8608 62.0619 41.4794 62.7835 42.201ZM65.7732 27.1495C65.7732 27.1495 65.8763 27.1495 65.7732 27.1495C65.8763 27.2526 65.8763 27.3557 65.7732 27.4588C65.7732 27.4588 65.7732 27.4588 65.7732 27.5619C65.7732 27.4588 65.7732 27.2526 65.7732 27.1495ZM62.165 24.0567H62.0619C61.9588 23.9536 61.8557 23.8505 61.8557 23.7474C61.8557 23.6443 61.8557 23.4381 61.8557 23.3351C61.8557 23.232 61.8557 23.232 61.8557 23.232C61.9588 23.1289 62.165 23.0258 62.4743 23.0258C62.4743 23.232 62.5773 23.3351 62.6804 23.5412C62.6804 23.5412 62.6804 23.5412 62.7835 23.5412C62.6804 23.7474 62.5773 24.0567 62.2681 24.0567C62.2681 23.9536 62.2681 24.0567 62.165 24.0567ZM59.5877 26.634C59.6907 26.4278 60 26.3247 60.2062 26.1186C60.4124 26.0155 60.7217 25.8093 60.9279 25.7062C61.031 25.6031 61.134 25.6031 61.3402 25.5C61.4433 25.5 61.5464 25.3969 61.6495 25.5H61.7526V25.6031C61.7526 25.7062 61.8557 25.8093 61.8557 25.8093C61.8557 26.0155 61.6495 26.2216 61.4433 26.3247C61.2371 26.5309 61.031 26.634 60.7217 26.7371C61.031 26.7371 61.3402 26.634 61.5464 26.5309C61.8557 26.4278 62.0619 26.1186 62.165 25.8093C62.165 25.7062 62.165 25.7062 62.165 25.6031C62.8866 25.2938 63.6083 24.9845 64.2268 24.6753C64.1237 24.9845 64.0206 25.1907 63.9176 25.5C63.8145 25.7062 63.7114 25.8093 63.7114 26.0155C63.7114 26.1186 63.6083 26.3247 63.6083 26.4278C63.5052 26.4278 63.4021 26.4278 63.299 26.4278C63.1959 26.4278 62.9897 26.5309 62.8866 26.634C62.7835 26.7371 62.6804 26.8402 62.6804 27.0464V27.1495C62.5773 27.0464 62.5773 27.0464 62.4743 26.9433C62.2681 26.8402 62.165 26.8402 61.9588 26.9433C61.8557 26.9433 61.7526 27.0464 61.7526 27.0464C61.6495 27.0464 61.6495 27.1495 61.5464 27.2526C61.4433 27.3557 61.3402 27.5619 61.3402 27.6649C61.3402 27.768 61.3402 27.768 61.3402 27.8711C60.7217 27.8711 60.2062 27.9742 59.5877 28.0773C59.6907 28.0773 59.6908 27.9742 59.6908 27.9742C59.6908 27.8711 59.6908 27.8711 59.6908 27.768C59.7938 27.768 60 27.768 60.1031 27.8711L60.8248 27.768H60.1031C59.7938 27.768 59.5877 27.6649 59.4846 27.4588C59.3815 27.1495 59.3815 26.8402 59.5877 26.634ZM61.6495 29.4175C61.6495 29.5206 61.6495 29.6237 61.6495 29.7268V29.8299C61.6495 29.8299 61.6495 29.8299 61.5464 29.8299C61.4433 29.7268 61.3402 29.7268 61.2371 29.6237C61.031 29.5206 60.7217 29.3144 60.5155 29.2113H60.4124L61.6495 29.0052C61.6495 29.0052 61.6495 29.0052 61.6495 29.1082C61.6495 29.2113 61.6495 29.3144 61.6495 29.4175ZM57.6289 27.768C57.8351 27.768 58.0413 27.5619 58.1444 27.4588C58.3505 27.3557 58.5567 27.2526 58.6598 27.1495C58.7629 27.0464 58.9691 26.9433 59.0722 26.8402C59.0722 27.0464 59.0722 27.2526 59.1753 27.3557C59.2784 27.4588 59.2784 27.5619 59.3815 27.5619C59.2784 27.5619 59.2784 27.6649 59.1753 27.6649C59.0722 27.6649 59.0722 27.768 59.0722 27.8711L58.9691 28.0773C58.3505 28.1804 57.8351 28.2835 57.2165 28.4897V28.3866C57.2165 28.2835 57.2165 28.1804 57.1134 27.9742C57.1134 27.8711 57.1134 27.768 57.0103 27.6649C57.3196 27.768 57.5258 27.768 57.6289 27.768ZM58.866 30.1392C58.866 30.1392 58.866 30.2423 58.9691 30.2423C58.9691 30.2423 58.9691 30.3454 59.0722 30.3454C59.1753 30.4485 59.3815 30.4485 59.4846 30.4485C59.5877 30.4485 59.7938 30.5515 59.8969 30.5515C60 30.5515 60.1031 30.6546 60.2062 30.7577C60.3093 30.8608 60.4124 30.9639 60.4124 31.067L60.7217 31.3763C60.8248 31.4794 60.9279 31.6856 61.134 31.7887C60.9279 32.201 60.6186 32.6134 60.3093 33.0258C60.2062 33.232 60 33.4381 59.7938 33.5412C59.5877 33.7474 59.3815 33.8505 59.1753 33.9536C58.7629 34.2629 58.2474 34.366 57.8351 34.6753C57.4227 34.8814 57.1134 35.0876 56.7011 35.2938L56.598 35.1907C56.4949 35.0876 56.4949 35.0876 56.3918 34.9845C56.0825 34.7783 55.7732 34.6753 55.4639 34.5722C54.8454 34.366 54.2268 34.1598 53.6083 34.0567C53.299 33.9536 52.9897 33.9536 52.6804 33.9536C52.3712 33.9536 52.0619 33.8505 51.8557 33.6443C51.5464 33.5412 51.3402 33.3351 51.134 33.1289C51.134 33.1289 51.134 33.1289 51.031 33.0258C51.7526 32.9227 52.4743 32.7165 53.1959 32.5103C53.9176 32.3041 54.6392 32.0979 55.3609 31.8918C55.6701 31.7887 56.0825 31.6856 56.3918 31.5825C56.598 31.4794 56.7011 31.4794 56.9072 31.3763H57.0103H57.1134C57.2165 31.3763 57.2165 31.2732 57.2165 31.2732C57.3196 31.1701 57.3196 31.1701 57.4227 31.067C57.6289 30.7577 57.9382 30.4485 58.1444 30.1392C58.3505 29.8299 58.4536 29.6237 58.6598 29.3144L59.2784 29.2113C59.1753 29.3144 59.0722 29.5206 58.9691 29.6237C58.866 29.933 58.866 30.0361 58.866 30.1392ZM52.6804 30.9639C52.7835 30.7577 52.8866 30.4485 52.8866 30.2423C52.8866 30.2423 52.8866 30.2423 52.8866 30.1392C53.6083 30.1392 54.3299 30.1392 54.9485 30.0361C55.6701 29.933 56.3918 29.8299 57.1134 29.7268L58.2474 29.5206C57.732 29.933 57.3196 30.4485 56.9072 30.8608C56.8041 30.9639 56.8041 30.9639 56.7011 31.067L56.598 31.1701H56.4949C56.2887 31.2732 56.1856 31.3763 55.9794 31.3763C55.6701 31.4794 55.3608 31.6856 54.9485 31.7887C54.2268 32.0979 53.6083 32.3041 52.8866 32.5103C52.165 32.7165 51.5464 32.9227 50.8248 33.1289C50.6186 32.9227 50.5155 32.7165 50.3093 32.5103C50.7217 32.4072 51.134 32.3041 51.5464 32.0979C52.165 31.8918 52.4743 31.3763 52.6804 30.9639ZM42.0619 19.933C42.0619 19.8299 41.9588 19.7268 41.8557 19.6237C41.7526 19.4175 41.5464 19.2113 41.3402 19.0052C41.2371 18.799 41.031 18.5928 40.8248 18.4897C40.8248 18.4897 40.7217 18.4897 40.7217 18.3866C40.9279 18.3866 41.2371 18.3866 41.4433 18.3866C41.8557 18.4897 42.2681 18.5928 42.6804 18.799C43.0928 19.0052 43.4021 19.2113 43.7114 19.5206C43.8145 19.6237 43.9176 19.7268 44.0206 19.8299C44.0206 19.8299 44.0206 19.8299 43.9176 19.8299C43.8145 19.8299 43.6083 19.7268 43.5052 19.7268C43.4021 19.7268 43.1959 19.7268 43.0928 19.7268C42.7835 19.7268 42.4743 19.8299 42.2681 20.0361L42.0619 19.933ZM42.4743 21.8918C44.5361 21.5825 45.2578 22.6134 45.2578 22.6134C45.2578 22.6134 45.567 23.0258 45.0516 23.7474C44.8454 24.0567 44.5361 24.1598 44.3299 24.2629V24.1598C44.433 23.9536 44.433 23.7474 44.3299 23.5412C44.0206 23.1289 43.5052 22.8196 42.9897 22.7165C42.4743 22.5103 41.9588 22.5103 41.3402 22.6134C41.031 22.6134 40.7217 22.7165 40.4124 22.8196C40.9279 22.4072 41.5464 21.9948 42.4743 21.8918ZM41.5464 23.0258C42.0619 22.9227 42.5773 22.8196 42.9897 22.9227C43.5052 23.0258 44.0206 23.1289 44.3299 23.5412C44.433 23.7474 44.433 23.9536 44.3299 24.1598C44.3299 24.1598 44.3299 24.2629 44.2268 24.2629C44.0206 24.366 43.8145 24.2629 43.8145 24.2629C43.8145 24.2629 43.5052 23.5412 42.5773 23.232C41.8557 23.0258 40.8248 23.1289 40.3093 23.232C40.7217 23.232 41.134 23.1289 41.5464 23.0258ZM38.3505 30.3454C38.6598 30.3454 39.0722 30.2423 39.3815 30.2423C39.5877 30.2423 39.6907 30.1392 39.8969 30.1392C40.1031 30.1392 40.2062 30.0361 40.4124 30.0361C41.031 29.933 41.7526 30.1392 42.3712 30.4485C42.4743 30.5515 42.6804 30.6546 42.7835 30.7577C42.8866 30.8608 43.0928 30.9639 43.299 31.067C43.6083 31.1701 44.0206 31.1701 44.3299 31.1701C44.5361 31.2732 44.7423 31.3763 44.9485 31.2732C45.0516 31.2732 45.0516 31.2732 45.1547 31.1701C45.1547 31.1701 45.2578 31.1701 45.2578 31.067C45.2578 31.067 45.2578 30.9639 45.3609 30.9639C45.4639 30.8608 45.4639 30.7577 45.4639 30.6546C45.4639 30.4485 45.3609 30.2423 45.3609 30.0361C45.3609 29.8299 45.2578 29.7268 45.1547 29.5206C45.3609 29.4175 45.567 29.2113 45.6701 29.0052C45.7732 28.799 45.8763 28.4897 45.8763 28.2835C45.8763 27.9742 45.7732 27.768 45.6701 27.4588C45.567 27.2526 45.3609 27.1495 45.1547 26.9433C45.3609 26.7371 45.567 26.634 45.7732 26.3247C45.8763 26.2216 45.9794 26.0155 45.9794 25.9124C45.9794 25.8093 45.9794 25.6031 45.8763 25.5C46.0825 25.3969 46.2887 25.3969 46.3918 25.2938C46.598 25.1907 46.8042 25.0876 47.0103 24.9845C47.1134 24.8814 47.3196 24.7783 47.4227 24.5722C47.8351 24.7783 48.1444 25.0876 48.4536 25.3969C48.4536 25.5 48.4536 25.6031 48.5567 25.7062C48.6598 25.8093 48.6598 25.9124 48.7629 26.0155C48.866 26.2216 49.0722 26.5309 49.3815 26.634C49.4846 26.7371 49.5877 26.7371 49.7938 26.8402L50.1031 27.0464C50.2062 27.1495 50.4124 27.1495 50.5155 27.1495C50.7217 27.1495 50.9279 27.1495 50.9279 27.1495H51.031C51.031 27.1495 51.031 27.1495 51.134 27.1495C51.134 27.1495 51.134 27.2526 51.134 27.3557C51.134 27.5619 51.031 27.768 50.8248 27.9742C50.8248 28.0773 50.8248 28.1804 50.9279 28.2835C51.134 28.3866 51.2371 28.3866 51.4433 28.4897C51.6495 28.5928 51.7526 28.6959 51.9588 28.799C52.0619 28.9021 52.165 28.9021 52.165 29.0052L52.2681 29.1082H52.3712V29.2113C52.3712 29.3144 52.2681 29.3144 52.2681 29.4175L52.165 29.5206C52.165 29.6237 52.2681 29.7268 52.3712 29.6237C52.5773 29.6237 52.5773 29.6237 52.5773 29.933C52.5773 30.1392 52.4743 30.4485 52.3712 30.6546C52.165 31.067 51.9588 31.5825 51.5464 31.7887C51.134 32.0979 50.7217 32.201 50.2062 32.3041C50 32.3041 49.6907 32.4072 49.4846 32.4072C49.3815 32.4072 49.2784 32.5103 49.1753 32.6134L48.866 32.8196L49.1753 32.6134C49.2784 32.5103 49.3815 32.5103 49.4846 32.5103C49.6907 32.4072 50 32.4072 50.2062 32.4072C50.3093 32.4072 50.3093 32.4072 50.4124 32.4072C50.8248 32.9227 51.134 33.4381 51.7526 33.7474C52.0619 33.9536 52.3712 34.0567 52.6804 34.0567C52.9897 34.1598 53.299 34.1598 53.6083 34.2629C54.2268 34.366 54.8454 34.5722 55.3609 34.7784C55.6701 34.8814 55.8763 35.0876 56.0825 35.1907C56.1856 35.1907 56.1856 35.2938 56.1856 35.2938L56.2887 35.3969L56.3918 35.5C56.3918 35.5 56.3918 35.5 56.3918 35.6031L54.3299 35.8093C54.0206 35.8093 53.8145 35.8093 53.5052 35.7062C53.299 35.6031 52.9897 35.5 52.7835 35.3969C52.2681 35.1907 51.7526 35.0876 51.134 34.9845C50.6186 34.8814 50 34.9845 49.4846 35.0876C50 34.8814 50.6186 34.8814 51.134 34.9845C51.6495 35.0876 52.165 35.1907 52.6804 35.3969C52.8866 35.5 53.1959 35.6031 53.4021 35.7062C53.7114 35.8093 53.9176 35.9124 54.2268 35.8093C54.7423 35.7062 55.3609 35.7062 55.8763 35.6031C55.9794 35.6031 56.1856 35.6031 56.2887 35.6031C56.2887 35.7062 56.3918 35.7062 56.3918 35.7062C56.4949 35.7062 56.7011 35.7062 56.7011 35.6031C57.5258 35.6031 58.3505 35.5 59.0722 35.5H59.4846C59.5877 35.5 59.5877 35.5 59.6908 35.5H59.7938C59.7938 35.5 59.8969 35.5 59.8969 35.3969C60 35.2938 60 35.1907 60.1031 34.9845C60.2062 34.8814 60.2062 34.7784 60.3093 34.6753C60.6186 34.2629 60.9279 33.7474 61.134 33.232L61.5464 32.5103L61.7526 32.0979C61.7526 31.9948 61.8557 31.9948 61.8557 31.8918C61.8557 31.8918 61.8557 31.7887 61.8557 31.6856C61.8557 31.5825 61.7526 31.5825 61.7526 31.4794C61.6495 31.4794 61.6495 31.3763 61.5464 31.3763C61.9588 31.9948 61.8557 31.9948 61.8557 31.9948C61.7526 31.8918 61.6495 31.8918 61.5464 31.7887C61.3402 31.6856 61.134 31.4794 61.031 31.2732L60.8248 30.9639C60.7217 30.8608 60.6186 30.7577 60.5155 30.6546C60.4124 30.5515 60.2062 30.4485 60.1031 30.4485C60 30.4485 59.7938 30.3454 59.6908 30.3454C59.5877 30.3454 59.4846 30.2423 59.2784 30.2423C59.2784 30.2423 59.1753 30.1392 59.2784 30.0361C59.3815 29.8299 59.4846 29.6237 59.7938 29.6237C60 29.5206 60.3093 29.6237 60.5155 29.7268C60.7217 29.8299 61.031 29.933 61.2371 30.0361C61.3402 30.1392 61.4433 30.1392 61.6495 30.2423H61.7526H61.8557C61.8557 30.2423 61.8557 30.2423 61.9588 30.2423C62.0619 30.1392 62.0619 30.0361 62.165 30.0361C62.2681 29.7268 62.165 29.4175 62.0619 29.1082C61.9588 28.9021 61.8557 28.5928 61.8557 28.3866C61.8557 28.1804 61.8557 27.8711 61.9588 27.6649L62.0619 27.5619H62.165C62.2681 27.5619 62.3712 27.5619 62.4743 27.5619C62.6804 27.6649 62.7835 27.8711 62.7835 28.0773C62.7835 28.1804 62.8866 28.1804 62.9897 28.1804C63.0928 28.1804 63.1959 28.0773 63.1959 27.9742C63.1959 27.768 63.1959 27.5619 63.299 27.3557C63.4021 27.1495 63.5052 27.0464 63.7114 27.0464C63.9176 27.0464 64.0206 27.1495 64.1237 27.2526C64.2268 27.3557 64.3299 27.6649 64.3299 27.768C64.3299 27.8711 64.433 27.9742 64.5361 27.8711C64.6392 27.8711 64.7423 27.768 64.6392 27.6649C64.6392 27.3557 64.6392 27.0464 64.8454 26.8402L64.9485 26.7371C65.0516 26.7371 65.0516 26.7371 65.1547 26.7371C65.2578 26.7371 65.3609 26.8402 65.4639 26.9433C65.567 27.1495 65.6701 27.5619 65.6701 27.8711V27.9742C65.6701 28.0773 65.6701 28.0773 65.7732 28.1804C65.7732 28.1804 65.7732 28.2835 65.8763 28.2835C65.8763 28.2835 65.9794 28.2835 66.0825 28.2835C66.1856 28.2835 66.1856 28.1804 66.1856 28.1804C66.2887 28.0773 66.2887 28.0773 66.2887 27.9742C66.3918 27.768 66.3918 27.5619 66.3918 27.4588C66.3918 27.1495 66.4949 26.7371 66.3918 26.4278C66.3918 26.2217 66.3918 26.1186 66.3918 26.0155C66.3918 25.9124 66.4949 25.9124 66.598 25.8093C66.7011 25.8093 66.7011 25.8093 66.8041 25.9124C66.9072 26.0155 66.9072 26.2216 66.9072 26.3247C66.9072 26.634 66.9072 26.9433 66.9072 27.3557C66.8042 28.0773 66.7011 28.6959 66.598 29.4175C66.4949 30.1392 66.2887 30.7577 65.9794 31.3763C65.8763 31.6856 65.6701 31.9948 65.4639 32.3041C65.4639 32.3041 65.4639 32.4072 65.3609 32.4072V32.5103L65.2578 32.7165L65.1547 33.232C64.9485 33.8505 64.7423 34.5722 64.5361 35.1907C64.3299 35.8093 64.1237 36.5309 63.8145 37.1495C63.5052 37.768 63.1959 38.3866 62.6804 38.799C62.165 39.3144 61.6495 39.6237 60.9279 39.7268C60.3093 39.933 59.5877 40.0361 58.866 40.1392C58.1444 40.2423 57.5258 40.3454 56.8041 40.3454C56.0825 40.3454 55.4639 40.3454 54.7423 40.3454C54.5361 40.3454 54.3299 40.3454 54.1237 40.3454L60.8248 39.2113C60.8248 39.2113 58.5567 38.799 55.3609 38.1804C53.4021 37.768 51.7526 39.1082 49.3815 38.0773C46.2887 36.634 46.1856 34.5722 44.6392 33.6443L44.7423 33.5412C44.8454 33.4381 44.8454 33.3351 44.8454 33.232C44.8454 33.1289 44.8454 33.0258 44.7423 32.9227C44.7423 32.8196 44.6392 32.7165 44.5361 32.6134C44.3299 32.4072 44.1237 32.4072 43.9176 32.4072H43.8145C43.5052 32.7165 43.0928 32.9227 42.6804 33.1289C42.2681 33.232 41.7526 33.232 41.3402 33.0258C40.9279 32.9227 40.5155 32.6134 40.2062 32.3041C40 32.201 39.7938 31.9948 39.6908 31.8918C39.5877 31.7887 39.4846 31.6856 39.4846 31.6856L39.3815 31.5825C39.3815 31.5825 39.3815 31.5825 39.3815 31.4794C39.3815 31.4794 39.3815 31.3763 39.3815 31.4794L39.1753 31.3763C39.0722 31.3763 38.9691 31.4794 38.7629 31.4794C38.6598 31.4794 38.4536 31.4794 38.3505 31.4794C38.0413 31.4794 37.8351 31.3763 37.5258 31.2732C37.3196 31.1701 37.0103 30.9639 36.8041 30.8608C36.7011 30.7577 36.598 30.6546 36.3918 30.4485C37.2165 30.3454 37.732 30.3454 38.3505 30.3454Z" fill="#151101"/>
<path fill-rule="evenodd" clip-rule="evenodd" d="M38.7629 30.964C38.9691 30.964 39.2783 30.9639 39.4845 30.8609C39.6907 30.8609 39.8969 30.7578 40.2062 30.6547C40.6185 30.5516 41.0309 30.5516 41.3402 30.8609L41.4433 30.964C41.4433 31.067 41.5464 31.067 41.5464 31.1701C41.6495 31.2732 41.7526 31.3763 41.8557 31.4794C42.0618 31.5825 42.3711 31.6856 42.5773 31.5825C42.6804 31.6856 42.7835 31.7887 42.7835 31.8918C42.7835 31.9949 42.7835 31.9949 42.7835 32.098C42.7835 32.098 42.6804 32.2011 42.6804 32.3042C42.5773 32.4072 42.4742 32.4072 42.268 32.4072C42.0618 32.4072 41.9588 32.3042 41.7526 32.3042C41.8557 32.4072 42.0618 32.4072 42.268 32.5103C42.4742 32.5103 42.6804 32.5103 42.7835 32.4072C42.8866 32.3042 42.8866 32.3042 42.9897 32.2011C42.9897 32.098 42.9897 31.9949 42.9897 31.8918C42.8866 31.6856 42.7835 31.5825 42.6804 31.4794H42.5773C42.3711 31.5825 42.1649 31.4794 42.0618 31.3763C41.9588 31.2732 41.9588 31.2732 41.8557 31.1701L41.7526 31.067C41.7526 30.9639 41.6495 30.9639 41.6495 30.8609C41.4433 30.6547 41.2371 30.4485 40.9278 30.4485C40.6185 30.4485 40.4124 30.4485 40.1031 30.4485C39.8969 30.4485 39.5876 30.5516 39.3814 30.5516C39.1752 30.6547 38.9691 30.6547 38.7629 30.6547C38.3505 30.7578 37.835 30.6547 37.4227 30.6547C37.835 30.8609 38.3505 30.964 38.7629 30.964Z" fill="#151101"/>
</svg>
