<svg width="90" height="24" viewBox="0 0 90 24" fill="none" xmlns="http://www.w3.org/2000/svg">
<path fill-rule="evenodd" clip-rule="evenodd" d="M13.3763 16.6314C13.3763 19.1057 11.134 21.5799 8.73711 21.5799H5.87629V2.6366H8.42783V2.25H0V2.55928H2.24227V21.5799H0V21.8892H13.7629V14.7758H13.3763V16.6314ZM29.768 19.3376V17.1727H29.4588V19.3376C29.4588 20.6521 28.9948 21.116 28.3763 21.116C27.5258 21.116 27.2938 20.4974 27.2938 18.7964V11.7603C27.2938 8.74485 25.2835 7.58505 21.6495 7.58505C18.2474 7.58505 16.2371 8.97681 16.2371 10.7552C16.2371 11.915 17.1649 12.4562 18.0928 12.4562C19.0206 12.4562 20.0258 11.8376 20.0258 10.7552C20.0258 9.90464 19.5619 9.28608 18.7113 9.05412C18.634 8.97681 18.634 8.9768 18.634 8.82216C18.634 8.74484 18.7113 8.59021 18.866 8.51289C19.4072 8.20361 20.1804 7.89433 21.1856 7.89433C22.9639 7.89433 23.8918 8.66753 23.8918 10.6778V14.2345C23.0412 14.0026 22.0361 13.9253 21.1082 13.9253C17.7835 13.9253 15.5412 15.3943 15.5412 18.2552C15.5412 20.5747 17.1649 22.0438 19.5619 22.0438C22.1134 22.0438 23.7371 20.5747 24.0464 18.7964C24.0464 20.884 24.8969 21.9665 26.9845 21.9665C29.1495 22.1211 29.768 20.884 29.768 19.3376ZM23.8918 17.25C23.8918 19.7242 22.4227 21.116 21.1082 21.116C19.8711 21.116 19.1753 20.4201 19.1753 18.0232C19.1753 15.7036 20.1031 14.4665 22.1134 14.4665C22.732 14.4665 23.4278 14.5438 23.9691 14.6985V17.25H23.8918ZM47.8608 21.8892V21.5799H49.8711V10.7552C49.8711 9.20877 49.1753 8.51289 48.0928 8.51289C46.5464 8.51289 44.6134 10.7552 44.5361 13.8479V21.5799H46.3144V21.8892H39.1237V21.5799H41.134V10.8325C41.134 9.28608 40.5155 8.51289 39.433 8.51289C37.8866 8.51289 35.8763 10.8325 35.8763 14.0799V21.5799H37.6546V21.8892H30.1546V21.5799H32.4742V8.20361H30.1546V7.89433H35.8763V11.7603C36.4175 9.44072 38.5051 7.58505 40.8247 7.58505C43.3763 7.58505 44.3814 9.20876 44.5361 11.9149C45.0773 9.44072 47.2423 7.58505 49.5619 7.58505C52.268 7.58505 53.2732 9.51804 53.2732 12.3015V21.8892H47.8608ZM75.1546 7.89433H69.433V8.20361H71.7526V21.5799H69.433V21.8892H77.4742V21.5799H75.1546V7.89433ZM75.3866 4.49227C75.3866 5.57474 74.6134 6.42526 73.4536 6.42526C72.2938 6.42526 71.4433 5.65206 71.4433 4.49227C71.4433 3.33248 72.2938 2.48196 73.4536 2.48196C74.5361 2.48196 75.3866 3.33248 75.3866 4.49227ZM89.3041 17.1727C88.8402 20.1881 86.9072 21.8119 84.5103 21.8119C82.1907 21.8119 81.1856 20.0335 81.1856 14.9304C81.1856 9.51804 82.4227 7.89433 84.7423 7.89433C85.7474 7.89433 86.5979 8.20361 87.0618 8.74485C87.1392 8.82217 87.2165 8.89949 87.2165 9.05412C87.2165 9.13144 87.2165 9.20877 87.0618 9.28609C86.2113 9.51804 85.7474 10.2912 85.7474 11.1418C85.7474 12.3789 86.6752 12.9974 87.6031 12.9974C88.5309 12.9974 89.4588 12.3789 89.4588 11.1418C89.4588 9.20876 87.5258 7.58505 84.201 7.58505C80.1031 7.58505 77.4742 10.4459 77.4742 14.9304C77.4742 19.4923 80.1804 22.1985 84.5103 22.1985C87.1392 22.1985 89.2268 20.5747 89.6907 17.1727H89.3041ZM59.2268 10.9871C59.8454 8.59021 61.3918 7.58505 63.4794 7.58505C66.8041 7.58505 69.201 10.0593 69.1237 14.7758C69.1237 19.3376 66.6495 22.1211 63.4021 22.1211C61.3918 22.1211 59.9227 21.116 59.2268 19.1057C58.299 19.415 56.6753 20.8067 56.134 21.8892H55.8247V2.55928H53.5052V2.25H59.2268V10.9871ZM59.2268 16.2448C59.2268 19.2603 60.3866 21.4253 62.3969 21.4253C64.2526 21.4253 65.2577 19.1057 65.2577 14.8531C65.2577 10.2139 64.4072 8.28093 62.3969 8.28093C60.4639 8.28093 59.2268 10.5232 59.2268 13.384V16.2448Z" fill="#151101"/>
</svg>
