<svg width="110" height="50" viewBox="0 0 110 50" fill="none" xmlns="http://www.w3.org/2000/svg">
<rect width="110" height="50" fill="#1A1A1A"/>
<path fill-rule="evenodd" clip-rule="evenodd" d="M14.6642 11.2164C14.586 11.2164 14.5079 11.2966 14.4297 11.2966C14.5079 11.2966 14.586 11.2966 14.586 11.3768C14.6642 11.3768 14.6642 11.457 14.7424 11.457C14.7424 11.457 14.7424 11.5371 14.8206 11.5371C14.8206 11.5371 14.8988 11.5371 14.8988 11.6173C14.8206 11.6975 14.7424 11.6975 14.6642 11.7777C14.586 11.8579 14.5079 11.938 14.4297 12.0984C14.586 12.0984 14.7424 12.0984 14.8206 12.0182C14.9769 11.938 14.9769 11.8579 15.0551 11.6975C15.0551 11.6975 15.0551 11.6173 15.1333 11.6173V11.5371C15.1333 11.457 15.2115 11.457 15.2115 11.3768C15.2897 11.2966 15.3678 11.2164 15.446 11.1362C15.2897 11.1362 15.2115 11.2164 15.1333 11.2966C15.1333 11.2164 14.9769 11.1362 14.8988 11.1362C14.8206 11.1362 14.7424 11.1362 14.6642 11.2164Z" fill="white"/>
<path fill-rule="evenodd" clip-rule="evenodd" d="M13.1797 11.5373C13.336 11.4571 13.4924 11.3769 13.5706 11.3769C13.6488 11.3769 13.7269 11.3769 13.8051 11.3769C13.8833 11.3769 13.9615 11.3769 14.0397 11.3769C14.1178 11.3769 14.2742 11.2967 14.3524 11.2165C14.4305 11.1364 14.4305 11.1364 14.5087 11.0562C14.5869 10.976 14.5869 10.8958 14.8214 10.8156C14.7433 10.7355 14.6651 10.6553 14.5869 10.6553C14.5087 10.6553 14.3524 10.7355 14.2742 10.7355C14.196 10.8156 14.1178 10.8156 14.1178 10.8958C14.1178 10.976 14.0397 10.976 14.0397 10.976C13.9615 10.976 13.8833 10.976 13.8051 11.0562C13.7269 11.0562 13.6488 11.1364 13.5706 11.1364C13.4142 11.2967 13.2579 11.3769 13.1797 11.5373Z" fill="white"/>
<path fill-rule="evenodd" clip-rule="evenodd" d="M2.6642 11.8176C2.68374 11.7776 2.70329 11.7375 2.70329 11.6974C2.6642 11.6573 2.62511 11.5971 2.58602 11.537C2.54693 11.4769 2.50784 11.4167 2.46875 11.3766V10.8956C2.46875 10.8154 2.46875 10.655 2.54693 10.4947C2.70329 10.2541 2.85965 10.0136 3.09418 9.85321C3.32872 9.69285 3.48507 9.61267 3.64143 9.53249C3.64143 9.4924 3.62189 9.47236 3.60234 9.45231C3.5828 9.43227 3.56325 9.41222 3.56325 9.37213C3.48508 9.29195 3.48507 9.13159 3.48507 8.97123C3.48507 8.81086 3.56325 8.6505 3.64143 8.57032C3.68052 8.53023 3.73916 8.49014 3.79779 8.45005C3.85642 8.40996 3.91506 8.36987 3.95415 8.32978L4.65775 8.08924C4.89229 8.00906 5.04865 8.00906 5.28318 8.00906C5.32227 7.92888 5.34182 7.8487 5.36136 7.76852C5.38091 7.68833 5.40045 7.60815 5.43954 7.52797C5.51772 7.28743 5.5959 7.12707 5.75226 6.96671C5.90861 6.80635 6.14315 6.72617 6.37768 6.80635C6.53404 6.88653 6.6904 6.96671 6.76858 7.04689C6.76858 6.96671 6.76858 6.88653 6.84676 6.80635C6.92494 6.64599 7.00312 6.48562 7.15947 6.40544C7.19856 6.40544 7.23765 6.3854 7.27674 6.36535C7.31583 6.34531 7.35492 6.32526 7.39401 6.32526C7.47219 6.32526 7.55037 6.32526 7.62855 6.40544C7.70672 6.40544 7.7849 6.48562 7.86307 6.5658L7.86308 6.5658L8.09762 6.08472C8.12095 6.04882 8.14254 6.01471 8.16317 5.98212C8.28079 5.79632 8.36715 5.65989 8.56669 5.52346C8.72304 5.36309 9.03576 5.36309 9.2703 5.44327C9.32242 5.44327 9.37453 5.51455 9.42665 5.58582C9.45271 5.62145 9.47877 5.65709 9.50483 5.68382C9.50483 5.72391 9.52438 5.764 9.54392 5.80409C9.56347 5.84418 9.58301 5.88427 9.58301 5.92436C9.66119 5.764 9.81755 5.68382 9.9739 5.60364L9.89573 5.52346L10.0521 5.60364C10.2084 5.44327 10.443 5.36309 10.6775 5.36309H10.9902C11.0293 5.36309 11.0879 5.38314 11.1466 5.40318C11.2052 5.42323 11.2639 5.44327 11.3029 5.44327H11.3811L11.1466 5.20273C10.9121 4.96219 10.6775 4.80183 10.3648 4.64147C10.0521 4.48111 9.73937 4.40093 9.42666 4.32075L9.42665 4.32074H8.8794C8.8794 4.40092 8.95758 4.40092 8.95758 4.40092C9.11394 4.48111 9.2703 4.64147 9.34847 4.80183L9.34848 4.80183C9.50484 4.96219 9.66119 5.12255 9.73937 5.28291C9.68398 5.22611 9.6384 5.1693 9.59568 5.11605C9.51781 5.019 9.44944 4.93379 9.34847 4.88201C9.19212 4.72165 9.03576 4.64147 8.8794 4.56129C8.80769 4.52451 8.71954 4.50461 8.63757 4.48609C8.54081 4.46424 8.45265 4.44433 8.41033 4.40092C8.33215 4.40092 8.33215 4.32074 8.33215 4.24056C8.33215 4.24056 8.33215 4.16038 8.41033 4.16038C8.80122 4.00002 9.11394 4.00002 9.50483 4.00002C9.81755 4.00002 10.2084 4.0802 10.5212 4.24056C10.8339 4.40092 11.1466 4.56129 11.3811 4.88201C11.6157 5.20273 11.772 5.52346 11.772 5.84418H11.8502H12.0065H12.3193C12.5538 5.84418 12.7102 5.84418 12.9447 5.92436C13.1792 6.00454 13.3356 6.08472 13.4919 6.24508C13.5701 6.32526 13.6483 6.48562 13.5701 6.5658C13.5701 6.64599 13.4919 6.72617 13.4138 6.80635C13.5701 6.88653 13.7265 6.96671 13.8828 7.12707C14.0392 7.28743 14.1956 7.44779 14.2737 7.60815C14.2737 7.64824 14.2933 7.70838 14.3128 7.76852C14.3324 7.82865 14.3519 7.88879 14.3519 7.92888C14.3519 8.00906 14.3519 8.16942 14.2737 8.2496C14.1821 8.34354 14.0905 8.40996 14.0147 8.46499C13.961 8.5039 13.9152 8.53711 13.8828 8.57032C13.961 8.73068 14.0392 8.89105 14.0392 9.05141C14.4301 9.13159 14.7428 9.29195 14.9773 9.61267C14.9773 9.69285 15.0555 9.77303 15.1337 9.85321C15.1728 9.8933 15.1923 9.9334 15.2119 9.97349C15.2314 10.0136 15.251 10.0537 15.2901 10.0938C15.3454 10.1506 15.391 10.2074 15.4337 10.2606C15.5116 10.3577 15.58 10.4429 15.6809 10.4947C15.7591 10.5348 15.8569 10.5748 15.9546 10.6149C16.0523 10.655 16.15 10.6951 16.2282 10.7352C16.3064 10.8154 16.3846 10.8154 16.4627 10.8154H16.6973C16.7494 10.7619 16.8015 10.7797 16.8536 10.7976C16.8797 10.8065 16.9057 10.8154 16.9318 10.8154C16.9318 10.8956 17.01 10.8956 17.01 10.8956L17.0882 10.9757C17.1663 11.0559 17.1663 11.1361 17.1663 11.2163V11.4568C17.1663 11.5742 17.1244 11.6486 17.0713 11.743C17.0519 11.7776 17.0309 11.8148 17.01 11.8577C17.0491 11.8978 17.0882 11.9179 17.1273 11.9379C17.1663 11.958 17.2054 11.978 17.2445 12.0181C17.3227 12.0582 17.3813 12.0983 17.44 12.1384C17.4986 12.1785 17.5572 12.2185 17.6354 12.2586C17.6354 12.3082 17.6653 12.3271 17.7065 12.3533C17.732 12.3694 17.7619 12.3884 17.7918 12.419L17.87 12.4992L17.7918 12.5794C17.87 12.5794 17.87 12.6595 17.87 12.6595C17.9481 12.6595 17.9481 12.7397 17.9481 12.7397C18.0263 12.6996 18.124 12.6595 18.2218 12.6194C18.3195 12.5794 18.4172 12.5393 18.4954 12.4992C18.4954 12.4992 19.2772 12.0181 20.6062 11.3766C21.553 10.8911 22.4711 10.4056 23.378 9.92007C23.3424 9.92869 23.3045 9.9334 23.2643 9.9334C23.1079 9.9334 23.0297 9.85321 22.9516 9.77303C22.9125 9.73294 22.8929 9.69285 22.8734 9.65276C22.8538 9.61267 22.8343 9.57258 22.7952 9.53249C22.7952 9.4924 22.7757 9.45231 22.7561 9.41222C22.7366 9.37213 22.717 9.33204 22.717 9.29195V9.13159V8.97123C22.717 8.83881 22.6933 8.73068 22.672 8.63349C22.6546 8.55412 22.6388 8.48204 22.6388 8.40996V8.08924C22.6388 7.92888 22.717 7.8487 22.7952 7.76852C22.8734 7.68833 23.0297 7.60815 23.1079 7.60815H23.4206C23.4988 7.60815 23.577 7.68833 23.6552 7.76852C23.61 7.72221 23.591 7.70265 23.5678 7.69438C23.5509 7.68833 23.5318 7.68833 23.4988 7.68833C23.4988 7.76852 23.4206 7.76852 23.3425 7.76852C23.2643 7.76852 23.1861 7.8487 23.1861 7.8487C23.1079 7.92888 23.1079 8.00906 23.1079 8.16942C23.0558 8.27633 23.0732 8.38323 23.0905 8.49014C23.0992 8.5436 23.1079 8.59705 23.1079 8.6505L23.1861 8.89105C23.1861 8.93114 23.2056 8.97123 23.2252 9.01132C23.2447 9.05141 23.2643 9.0915 23.2643 9.13159C23.2643 9.29195 23.4206 9.45231 23.4988 9.45231C23.4988 9.50187 23.5287 9.49017 23.5699 9.474C23.5954 9.46401 23.6253 9.45231 23.6552 9.45231C23.7334 9.45231 23.8115 9.37213 23.8115 9.29195C23.8115 9.25874 23.8249 9.23928 23.8407 9.21649C23.8629 9.18426 23.8897 9.14535 23.8897 9.05141C23.8897 9.01132 23.8702 8.97123 23.8506 8.93114C23.8311 8.89105 23.8115 8.85096 23.8115 8.81087L23.7334 8.57032C23.7334 8.49014 23.7138 8.40996 23.6943 8.32978C23.6747 8.2496 23.6552 8.16942 23.6552 8.08924C23.6552 8.00906 23.6552 7.92888 23.7334 7.8487V7.76852H23.6552L23.7334 7.68833H24.0461C24.1242 7.76852 24.2024 7.76852 24.2806 7.76852C24.3588 7.76852 24.437 7.76852 24.5151 7.8487H24.3588C24.2024 7.8487 24.0461 7.92888 24.0461 7.92888C23.9679 7.92888 23.9679 8.00906 23.9679 8.00906V8.16942V8.57032V8.81087C24.0461 8.89105 24.0461 8.89105 24.0461 8.97123C24.1242 9.05141 24.2024 9.13159 24.2806 9.13159C24.437 9.13159 24.5151 9.05141 24.5933 8.97123C24.6715 8.89105 24.6715 8.81086 24.6715 8.57032C24.6715 8.53023 24.652 8.51019 24.6324 8.49014C24.6129 8.4701 24.5933 8.45005 24.5933 8.40996C24.5933 8.37675 24.5799 8.32978 24.5642 8.27475C24.542 8.19693 24.5151 8.103 24.5151 8.00906V7.8487V7.76852L24.5933 7.68833H24.6715C24.8279 7.60815 24.9842 7.60815 25.1406 7.60815C25.1797 7.60815 25.2187 7.6282 25.2578 7.64824C25.2969 7.66829 25.336 7.68833 25.3751 7.68833V7.60815C25.3751 7.44779 25.3751 7.28743 25.4533 7.04689C25.4533 6.88653 25.5315 6.80635 25.6096 6.72617C25.6878 6.64599 25.766 6.5658 25.9224 6.5658H26.1569C26.196 6.5658 26.2155 6.58585 26.2351 6.6059C26.2546 6.62594 26.2742 6.64599 26.3132 6.64599C26.3758 6.67806 26.4133 6.71013 26.4508 6.7422C26.5071 6.79031 26.5634 6.83842 26.7041 6.88653C26.7823 7.04689 26.8605 7.28743 26.8605 7.44779V7.90339C26.9401 7.85843 27.0183 7.81348 27.095 7.76852C27.6164 7.52549 28.1089 7.25299 28.5902 6.98676C28.9028 6.81381 29.2107 6.6435 29.5186 6.48562C31.6294 5.28291 33.4275 4.24056 34.4438 3.59912H34.522C34.7565 3.51894 34.9129 3.35858 35.0693 3.19821C35.382 2.95767 35.6165 2.55677 35.6947 2.15586C35.6947 2.07568 35.6947 2.07568 35.7729 2.07568H35.851C36.0856 2.31623 36.3201 2.63695 36.4765 2.87749C36.5547 3.03785 36.6328 3.17817 36.711 3.31849C36.7892 3.4588 36.8674 3.59912 36.9455 3.75948C37.1019 4.00002 37.2583 4.32074 37.3364 4.64147L37.571 5.60364C37.571 5.68382 37.571 5.764 37.4928 5.764H37.4146C37.0237 5.44327 36.3983 5.44327 35.9292 5.60364C35.382 5.764 34.9129 5.92436 34.3657 6.1649C33.7241 6.3999 33.1094 6.66245 32.5058 6.92024C32.0797 7.10225 31.6591 7.28189 31.2385 7.44779C29.7531 8.00906 28.3459 8.6505 26.9387 9.29195V9.61267C26.9387 9.69285 26.9191 9.77303 26.8996 9.85321C26.88 9.9334 26.8605 10.0136 26.8605 10.0938C26.8214 10.1739 26.8019 10.2541 26.7823 10.3343C26.7628 10.4145 26.7432 10.4947 26.7041 10.5748L26.4696 10.8154L26.626 10.9757C26.626 10.8956 26.7041 10.8154 26.7823 10.7352C26.8214 10.7352 26.8605 10.7152 26.8996 10.6951C26.9387 10.6751 26.9778 10.655 27.0169 10.655H27.2514C27.4078 10.655 27.5641 10.8154 27.6423 10.9757C27.5641 10.8956 27.4859 10.8154 27.4078 10.8154H27.2514L27.1732 10.8956C27.0169 11.0559 27.0169 11.2965 27.0169 11.537C27.095 11.6172 27.0169 11.6974 26.9387 11.6974C26.8605 11.7776 26.7823 11.6974 26.7823 11.6172C26.7823 11.537 26.7041 11.2965 26.626 11.2163C26.5478 11.1361 26.4696 11.0559 26.3132 11.0559C26.1569 11.0559 26.0787 11.1361 26.0005 11.2965C25.9224 11.4568 25.9224 11.6172 25.9224 11.7776C25.9224 11.8577 25.8442 11.9379 25.766 11.9379C25.6878 11.9379 25.6096 11.9379 25.6096 11.8577C25.6096 11.6974 25.5315 11.537 25.3751 11.4568H25.1406H25.0624L24.9842 11.537C24.906 11.6974 24.906 11.9379 24.906 12.0983C24.906 12.2586 24.9842 12.4992 25.0624 12.6595C25.1406 12.9001 25.2187 13.1406 25.1406 13.3812C25.0923 13.3812 25.0738 13.4118 25.0483 13.4541C25.0325 13.4803 25.0141 13.5109 24.9842 13.5415H24.906H24.8279H24.7497C24.69 13.5109 24.6416 13.492 24.6004 13.4758C24.5336 13.4496 24.4853 13.4307 24.437 13.3812C24.3588 13.3411 24.2611 13.301 24.1633 13.2609C24.0656 13.2208 23.9679 13.1807 23.8897 13.1406C23.7334 13.0604 23.4988 12.9803 23.3425 13.0604C23.1079 13.0604 23.0297 13.2208 22.9516 13.3812C22.8734 13.4613 22.9516 13.5415 22.9516 13.5415C23.0432 13.5415 23.1079 13.569 23.1616 13.5918C23.1995 13.608 23.2319 13.6217 23.2643 13.6217C23.3034 13.6217 23.362 13.6418 23.4206 13.6618C23.4793 13.6818 23.5379 13.7019 23.577 13.7019C23.6552 13.7019 23.8115 13.7821 23.8897 13.8623L24.1242 14.1028L24.2806 14.3433C24.3588 14.5037 24.5151 14.6641 24.6715 14.7442C24.7106 14.7843 24.7497 14.8044 24.7888 14.8244C24.8208 14.8409 24.8529 14.8573 24.885 14.8848C24.8794 14.8918 24.8732 14.8982 24.8669 14.9046C24.8474 14.9246 24.8279 14.9447 24.8279 14.9848L24.6715 15.3055L24.3588 15.8668C24.2024 16.2677 23.9679 16.6686 23.7334 16.9893C23.6943 17.0294 23.6747 17.0695 23.6552 17.1096C23.6356 17.1497 23.6161 17.1898 23.577 17.2298C23.5471 17.2911 23.5287 17.3407 23.5129 17.383C23.4874 17.4515 23.469 17.501 23.4206 17.5506C23.4206 17.6307 23.3425 17.6307 23.3425 17.6307H23.2643H23.1079H22.7952C22.5307 17.6307 22.248 17.6495 21.9558 17.6688C21.6434 17.6895 21.3202 17.7109 20.9971 17.7109C20.9971 17.7911 20.8407 17.7911 20.7626 17.7911C20.7626 17.7911 20.6897 17.7911 20.6847 17.7189L20.7626 17.7109V17.6307L20.6844 17.5506L20.6062 17.4704C20.6062 17.4704 20.6062 17.3902 20.528 17.3902C20.4698 17.3604 20.4116 17.3194 20.3494 17.2756C20.2444 17.2017 20.128 17.1198 19.9808 17.0695C19.5899 16.9091 19.1208 16.7488 18.6517 16.6686C18.5345 16.6285 18.4172 16.6084 18.2999 16.5884C18.1827 16.5684 18.0654 16.5483 17.9481 16.5082C17.7136 16.5082 17.4791 16.428 17.2445 16.2677C16.9892 16.1368 16.8034 15.9584 16.6367 15.7583C16.6655 15.7497 16.6942 15.7411 16.7227 15.7325L16.7755 15.7866C16.9318 15.947 17.0882 16.1073 17.3227 16.1875C17.4791 16.3479 17.7136 16.428 17.9481 16.428C18.1827 16.428 18.4172 16.428 18.6517 16.5082C19.1208 16.5884 19.5899 16.7488 20.059 16.9091L20.059 16.9091C20.2935 16.9893 20.528 17.0695 20.7626 17.2298L20.9189 17.3902L20.9971 17.4704C21.1535 17.3902 21.2903 17.31 21.4271 17.2298C21.5639 17.1497 21.7007 17.0695 21.8571 16.9893C22.0134 16.869 22.1893 16.7888 22.3652 16.7087C22.5411 16.6285 22.717 16.5483 22.8734 16.428C23.0297 16.3479 23.1861 16.2677 23.3425 16.1073C23.4988 16.0271 23.6552 15.8668 23.7334 15.7064C23.9679 15.3857 24.2024 15.065 24.3588 14.7442C24.2498 14.6883 24.1788 14.5935 24.1192 14.5139C24.0934 14.4794 24.0697 14.4478 24.0461 14.4235L23.8115 14.183C23.8115 14.1028 23.7334 14.0226 23.6552 13.9424L23.6552 13.9424C23.577 13.8623 23.4988 13.7821 23.4206 13.7821C23.3815 13.7821 23.3229 13.762 23.2643 13.742C23.2056 13.7219 23.147 13.7019 23.1079 13.7019C23.0297 13.7019 22.8734 13.7019 22.7952 13.6217C22.717 13.6217 22.717 13.5415 22.717 13.5415C22.6388 13.5415 22.6388 13.4613 22.6388 13.4613C22.6388 13.3812 22.6388 13.301 22.717 13.0604C22.7561 13.0204 22.7952 12.9602 22.8343 12.9001C22.8734 12.8399 22.9125 12.7798 22.9516 12.7397L22.4825 12.8199C22.4043 12.9402 22.3457 13.0404 22.287 13.1406C22.2284 13.2409 22.1698 13.3411 22.0916 13.4613C22.0134 13.5816 21.9157 13.7019 21.818 13.8222C21.7203 13.9424 21.6225 14.0627 21.5443 14.183L21.388 14.3433C21.388 14.3433 21.388 14.4235 21.3098 14.4235H21.2316H21.1535C21.0753 14.4636 21.0166 14.4837 20.958 14.5037C20.8994 14.5237 20.8407 14.5438 20.7626 14.5839C20.6453 14.624 20.5085 14.6641 20.3717 14.7041C20.2349 14.7442 20.098 14.7843 19.9808 14.8244L18.339 15.3055L18.339 15.3055C17.8732 15.442 17.4074 15.5785 16.9417 15.6655C17.0703 15.6257 17.1965 15.5859 17.3227 15.5461C17.5768 15.4659 17.8309 15.3857 18.1045 15.3055C18.6517 15.1451 19.1208 14.9848 19.6681 14.7442C19.8541 14.6965 20.0124 14.6205 20.1596 14.5498C20.2598 14.5016 20.3548 14.456 20.4498 14.4235C20.5643 14.4235 20.6369 14.3805 20.7289 14.3261C20.7626 14.3061 20.7988 14.2846 20.8407 14.2632H20.9189L20.9971 14.183L21.1535 14.0226C21.2549 13.9185 21.3564 13.806 21.4606 13.6905C21.6774 13.4501 21.9058 13.1969 22.1698 12.9803L21.3098 13.1406L19.6681 13.3812C19.199 13.4613 18.6517 13.4613 18.1045 13.4613V13.5415C18.1045 13.7019 18.0263 13.9424 17.9481 14.1028C17.7918 14.4235 17.5572 14.8244 17.0882 14.9848C16.8144 15.1252 16.5406 15.2041 16.2669 15.2754C16.2541 15.2587 16.2412 15.242 16.2282 15.2253H16.0718C15.9155 15.2253 15.6809 15.2253 15.5246 15.3055C15.4464 15.3055 15.3682 15.3055 15.2901 15.3857C15.3682 15.3055 15.4464 15.2253 15.5246 15.2253C15.6028 15.2253 15.7005 15.2053 15.7982 15.1852C15.8959 15.1652 15.9937 15.1451 16.0718 15.1451C16.4627 15.065 16.7754 14.9848 17.0882 14.7442C17.3624 14.6036 17.5164 14.278 17.6556 13.9837C17.6751 13.9424 17.6943 13.9017 17.7136 13.8623C17.7918 13.7019 17.87 13.4613 17.87 13.301C17.87 13.1636 17.87 13.1047 17.8408 13.0794C17.8189 13.0604 17.7806 13.0604 17.7136 13.0604C17.6354 13.1406 17.5572 13.0604 17.5572 12.9803L17.6354 12.9001C17.6354 12.86 17.655 12.8399 17.6745 12.8199C17.694 12.7999 17.7136 12.7798 17.7136 12.7397V12.6595H17.6354L17.5572 12.5794C17.5572 12.5298 17.5274 12.5109 17.4861 12.4847C17.4606 12.4686 17.4307 12.4496 17.4009 12.419C17.3227 12.3789 17.2641 12.3388 17.2054 12.2987C17.1468 12.2586 17.0882 12.2185 17.01 12.1785C16.9318 12.1384 16.8732 12.1183 16.8145 12.0983C16.7559 12.0782 16.6973 12.0582 16.6191 12.0181C16.5409 11.9379 16.5409 11.8577 16.5409 11.7776C16.6973 11.6172 16.7755 11.4568 16.7755 11.2965V11.1361H16.6973H16.6191H16.3064C16.2282 11.1361 16.0718 11.1361 15.9937 11.0559L15.7591 10.8956C15.6994 10.8649 15.6511 10.846 15.6098 10.8298C15.543 10.8037 15.4947 10.7848 15.4464 10.7352C15.2119 10.655 15.0555 10.4145 14.9773 10.2541C14.9383 10.214 14.9187 10.1739 14.8992 10.1338C14.8796 10.0938 14.8601 10.0537 14.821 10.0136C14.7428 9.9334 14.7428 9.85321 14.7428 9.77303C14.5083 9.53249 14.2737 9.29195 13.961 9.13159C13.9065 9.2434 13.814 9.31623 13.7365 9.37726C13.7028 9.40376 13.672 9.42803 13.6483 9.45231L13.1792 9.69285C13.1353 9.73788 13.0668 9.75762 12.9874 9.78047C12.9254 9.79832 12.8569 9.81806 12.7883 9.85321C12.8665 9.9334 12.8665 10.0938 12.8665 10.1739C12.8665 10.2541 12.7883 10.4145 12.7102 10.4947C12.6059 10.655 12.5017 10.7441 12.3974 10.8332C12.3453 10.8777 12.2932 10.9223 12.2411 10.9757C12.2965 11.0326 12.3519 11.0793 12.4038 11.1231C12.4984 11.203 12.5815 11.2731 12.632 11.3766C12.6483 11.4269 12.6646 11.4736 12.6802 11.5182C12.7394 11.6876 12.7883 11.8278 12.7883 12.0181C12.7883 12.1785 12.7102 12.419 12.632 12.5794C12.5538 12.7397 12.3974 12.9001 12.2411 12.9803C12.262 13.0232 12.283 13.0604 12.3024 13.095C12.3555 13.1894 12.3974 13.2638 12.3974 13.3812C12.3974 13.4613 12.417 13.5415 12.4365 13.6217C12.4561 13.7019 12.4756 13.7821 12.4756 13.8623C12.4756 13.9424 12.4756 14.0226 12.3974 14.1028C12.3193 14.1028 12.3193 14.183 12.3193 14.183C12.3193 14.2632 12.2411 14.2632 12.2411 14.2632C12.1629 14.3433 12.1629 14.3433 12.0847 14.3433C11.9284 14.4235 11.772 14.3433 11.6157 14.2632C11.3811 14.2632 11.0684 14.2632 10.8339 14.183L10.8339 14.183C10.6775 14.1028 10.5212 14.0226 10.443 13.9424C10.4039 13.9023 10.3453 13.8623 10.2866 13.8222C10.228 13.7821 10.1694 13.742 10.1303 13.7019C9.66119 13.4613 9.11394 13.301 8.64487 13.3812C8.56669 13.3812 8.50806 13.4012 8.44942 13.4213C8.39079 13.4413 8.33215 13.4613 8.25397 13.4613C8.1758 13.4613 8.11716 13.4814 8.05853 13.5014C7.99989 13.5215 7.94126 13.5415 7.86308 13.5415C7.74581 13.5415 7.609 13.5616 7.47219 13.5816C7.33537 13.6017 7.19856 13.6217 7.08129 13.6217C6.61222 13.6217 6.22133 13.6217 5.5959 13.7019L5.90861 14.0226C5.98679 14.0627 6.08451 14.1228 6.18224 14.183C6.27996 14.2431 6.37768 14.3032 6.45586 14.3433C6.50481 14.3601 6.55035 14.3768 6.59391 14.3928C6.75907 14.4535 6.89571 14.5037 7.08129 14.5037H7.39401C7.4856 14.5037 7.55037 14.4762 7.60402 14.4534C7.64196 14.4373 7.67434 14.4235 7.70672 14.4235L7.86308 14.5037V14.5839L7.94126 14.6641L8.09762 14.8244C8.1758 14.9046 8.33215 15.065 8.48851 15.1451C8.72304 15.3857 9.03576 15.6262 9.34847 15.7064C9.66119 15.8668 10.0521 15.8668 10.3648 15.7866L10.3648 15.7866C10.6775 15.6262 10.9902 15.4659 11.2248 15.2253H11.3029C11.4593 15.2253 11.6157 15.2253 11.772 15.3857C11.8502 15.4659 11.9284 15.546 11.9284 15.6262C12.0065 15.7064 12.0065 15.7866 12.0065 15.8668C12.0065 15.9469 12.0065 16.0271 11.9284 16.1073L11.8502 16.1875C12.3145 16.4732 12.6072 16.8971 12.9369 17.3747C13.4401 18.1035 14.0296 18.9571 15.4464 19.6353C16.4898 20.1005 17.349 19.9448 18.1766 19.7948C18.7752 19.6863 19.3573 19.5808 19.9808 19.7154C22.4043 20.1965 24.1242 20.5173 24.1242 20.5173L19.0426 21.3992H19.5117H21.0753C21.561 21.3992 21.985 21.3361 22.4569 21.2658C22.5167 21.2569 22.5773 21.2479 22.6388 21.2389C23.1861 21.1587 23.7334 21.0785 24.2024 20.9182C24.7497 20.838 25.1406 20.5974 25.5315 20.1965C25.9224 19.8758 26.1569 19.3947 26.3914 18.9136C26.58 18.5269 26.718 18.0884 26.8461 17.6814C26.8773 17.582 26.908 17.4846 26.9387 17.3902C27.0169 17.1497 27.095 16.8891 27.1732 16.6285C27.2514 16.3679 27.3296 16.1073 27.4078 15.8668L27.4859 15.4659L27.5641 15.3055V15.2253C27.6423 15.2253 27.6423 15.1451 27.6423 15.1451C27.7986 14.9046 27.955 14.6641 28.0332 14.4235C28.2677 13.9424 28.4241 13.4613 28.5023 12.9001C28.5413 12.6194 28.5804 12.3589 28.6195 12.0983C28.6586 11.8377 28.6977 11.5771 28.7368 11.2965V10.4947C28.7368 10.4145 28.7368 10.2541 28.6586 10.1739C28.6135 10.1276 28.5944 10.1081 28.5713 10.0998C28.5544 10.0938 28.5353 10.0938 28.5023 10.0938C28.4724 10.1244 28.4425 10.1433 28.417 10.1595C28.3758 10.1856 28.3459 10.2046 28.3459 10.2541V10.5748C28.3989 10.738 28.38 10.938 28.3624 11.1248C28.354 11.2135 28.3459 11.2992 28.3459 11.3766C28.3459 11.4568 28.3459 11.6172 28.2677 11.7776C28.2677 11.8577 28.2677 11.8577 28.1895 11.9379C28.1895 11.9379 28.1895 12.0181 28.1114 12.0181H27.955C27.8768 12.0181 27.8768 11.9379 27.8768 11.9379C27.7986 11.8577 27.7986 11.8577 27.7986 11.7776V11.6974C27.7986 11.4568 27.7205 11.1361 27.6423 10.9757C27.6423 10.8956 27.7205 10.8956 27.7205 10.8956C27.7596 10.8956 27.7791 10.8755 27.7986 10.8555C27.8182 10.8354 27.8377 10.8154 27.8768 10.8154V10.655C27.8768 10.4947 27.8768 10.3343 27.955 10.1739C27.9941 10.1338 28.0136 10.0938 28.0332 10.0537C28.0527 10.0136 28.0723 9.97349 28.1114 9.9334C28.1895 9.85322 28.2677 9.77303 28.3459 9.77303C28.4241 9.77303 28.5804 9.77303 28.6586 9.85321C28.815 9.9334 28.815 9.9334 28.815 10.0938C28.8931 10.2541 28.9713 10.4145 28.9713 10.5748V10.7352C29.714 10.5348 30.4763 10.3343 31.2385 10.1338C32.0007 9.9334 32.763 9.73294 33.5057 9.53249L35.851 8.81087C36.2419 8.6505 36.6328 8.57032 37.1801 8.49014C37.4928 8.2496 37.8055 8.00906 37.9619 7.60815C37.9619 7.52797 38.0401 7.52797 38.0401 7.52797C38.1964 7.76852 38.3528 8.08924 38.4309 8.40996L38.6655 9.37213C38.7437 9.69285 38.8218 10.0136 38.8218 10.3343V11.2965C38.8218 11.3369 38.8218 11.3569 38.8118 11.3669C38.802 11.3766 38.7824 11.3766 38.7437 11.3766H38.6655C38.4309 11.0559 38.04 10.9757 37.6492 10.8956H37.0237L36.3983 10.9757C35.5383 11.0559 34.7565 11.1361 33.8966 11.2965C33.0757 11.4167 32.2744 11.5571 31.473 11.6974C30.6717 11.8377 29.8704 11.978 29.0495 12.0983C29.0495 12.419 28.9713 12.7397 28.8931 13.0604C28.815 13.6217 28.6586 14.183 28.4241 14.6641L28.4241 14.6641C28.2677 14.9046 28.1114 15.1452 28.0332 15.3857V15.4659V15.546L27.955 15.7064L27.8768 16.1073C27.7986 16.3479 27.7205 16.6085 27.6423 16.8691C27.5641 17.1296 27.4859 17.3902 27.4078 17.6307C27.3771 17.7251 27.3464 17.8226 27.3152 17.9219C27.187 18.3289 27.049 18.7675 26.8605 19.1542C26.626 19.6353 26.3132 20.1163 25.9224 20.5173L25.2187 20.9983C25.0294 21.1278 24.789 21.205 24.58 21.2722C24.5302 21.2882 24.4821 21.3036 24.437 21.3191C24.3979 21.3191 24.3392 21.3391 24.2806 21.3591C24.222 21.3792 24.1633 21.3992 24.1242 21.3992C24.7497 21.8001 25.2969 22.2812 25.8442 22.8425C26.1569 23.083 26.4696 23.4038 26.7041 23.7245C26.9387 24.0452 27.1732 24.3659 27.3296 24.7668C27.4859 25.1677 27.5641 25.5686 27.5641 25.9695C27.5641 26.4506 27.4859 26.8515 27.4078 27.2524C27.1732 28.0542 26.8605 28.856 26.3914 29.4975C26.5228 29.5873 26.6603 29.6772 26.8006 29.7688C27.1609 30.0042 27.5391 30.2512 27.8768 30.5398L27.8768 30.5399C28.1114 30.7002 28.3459 30.8606 28.5804 31.1011C28.6041 31.1254 28.6349 31.1497 28.6686 31.1762C28.7461 31.2372 28.8386 31.31 28.8931 31.4218C28.9713 31.5822 29.0495 31.7426 29.0495 31.9029C29.1277 32.2236 29.1277 32.5444 29.1277 32.8651C29.1277 33.0254 29.1081 33.1858 29.0886 33.3462C29.069 33.5065 29.0495 33.6669 29.0495 33.8273C28.9713 34.148 28.9713 34.4687 28.9713 34.7894V35.2705C29.0104 35.3507 29.03 35.4108 29.0495 35.471C29.069 35.5311 29.0886 35.5912 29.1277 35.6714C29.284 35.912 29.5186 36.1525 29.7531 36.3129C29.8339 36.3543 29.9095 36.3957 29.9825 36.4358C30.1922 36.5507 30.3812 36.6543 30.6131 36.7138C31.1603 36.8741 31.7857 36.9543 32.4111 37.0345L32.4112 37.0345L33.3493 37.1147C33.662 37.1147 33.9748 37.1948 34.2875 37.275C34.8347 37.5156 35.382 37.9165 35.7729 38.3976L38.3528 40.0814V40.2417C38.0401 40.7228 37.571 40.9633 37.0237 41.1237C36.7892 41.2039 36.4765 41.2039 36.2419 41.2039C36.1638 41.2039 36.1051 41.1838 36.0465 41.1638C35.9879 41.1437 35.9292 41.1237 35.851 41.1237C35.7729 41.0836 35.7142 41.0636 35.6556 41.0435C35.597 41.0235 35.5383 41.0034 35.4602 40.9633C35.2256 40.8832 34.9911 40.7228 34.7565 40.5624L34.7565 40.5624C34.522 40.3219 34.3656 40.1615 34.2093 39.921C34.0529 39.6804 33.8966 39.4399 33.7402 39.2795C33.5839 39.039 33.3493 39.039 33.1148 39.039C32.8412 39.039 32.5871 39.0991 32.333 39.1593C32.0789 39.2194 31.8248 39.2795 31.5512 39.2795C31.3297 39.2795 31.1473 39.199 30.9765 39.1236C30.9062 39.0926 30.8378 39.0624 30.7694 39.039C30.6522 38.9989 30.5349 38.9388 30.4176 38.8786C30.3004 38.8185 30.1831 38.7584 30.0658 38.7183L28.6586 38.2372C28.2473 38.0966 27.7758 38.0176 27.3497 37.9462C27.2899 37.9362 27.231 37.9263 27.1732 37.9165H26.3914H26.0005H25.6096C25.4533 37.8363 25.2969 37.7561 25.2187 37.5957C25.1978 37.5528 25.1768 37.5156 25.1574 37.481C25.1043 37.3867 25.0624 37.3122 25.0624 37.1948C25.0265 37.0478 25.0071 36.9175 24.9891 36.7964C24.9678 36.6535 24.9484 36.5233 24.906 36.393L24.6715 35.6714C24.6715 35.5912 24.5933 35.511 24.5151 35.4309C24.437 35.3507 24.3588 35.3507 24.2024 35.3507H23.9679H23.8897H23.8115C23.8115 35.2705 23.7334 35.2705 23.7334 35.2705C23.6943 35.2304 23.6356 35.1903 23.577 35.1502C23.5184 35.1101 23.4597 35.0701 23.4206 35.03L23.1079 34.7894C23.0688 34.8696 23.0297 34.9297 22.9907 34.9899C22.9606 35.0362 22.9305 35.0824 22.9004 35.1379L22.8734 35.1101C22.4825 34.7894 22.0134 34.4687 21.5443 34.3885C21.4662 34.3885 21.4075 34.3685 21.3489 34.3484C21.2903 34.3284 21.2316 34.3083 21.1535 34.3083C20.9971 34.4687 20.6844 34.9498 20.6062 35.511C20.528 36.3129 19.9026 37.1948 19.4335 37.1948H18.9645C18.9645 37.1948 18.1827 38.2372 17.4791 38.8786C16.7754 39.5201 16.5409 40.0813 16.6191 41.2039C16.6582 41.7651 16.7754 42.2061 16.8634 42.5369C16.9514 42.8676 17.01 43.0881 16.9318 43.2084C16.7754 43.4489 16.5409 43.4489 16.5409 43.4489C16.5409 43.4489 16.9318 44.4111 17.3227 44.6517C17.5707 44.7788 17.8677 44.7547 18.0581 44.7393C18.1078 44.7353 18.1503 44.7318 18.1827 44.7318C17.7918 44.2507 17.5572 43.7697 17.3227 43.2084C17.0882 42.6471 17.01 42.0057 17.0882 41.4444C17.1663 40.803 17.4009 40.2417 17.7918 39.8408C17.8943 39.7146 18.0023 39.5994 18.1142 39.4923C18.0837 39.5283 18.0544 39.5643 18.0263 39.6003C17.6354 40.0813 17.4009 40.5624 17.3227 41.1237C17.2445 41.685 17.4009 42.2462 17.5572 42.7273C17.7918 43.2084 18.1045 43.6895 18.4172 44.1706C18.7299 44.6517 19.1208 45.0526 19.5117 45.4535L20.6844 46.6562C20.7626 46.6562 20.7626 46.7364 20.6844 46.8165H20.6062C20.5573 46.8333 20.5117 46.85 20.4681 46.866C20.303 46.9267 20.1664 46.9769 19.9808 46.9769H19.3553C18.9645 46.9769 18.5736 46.9769 18.1827 46.8967C18.0263 46.8967 17.7918 46.8165 17.6354 46.6562C17.4791 46.5493 17.3922 46.4424 17.3053 46.3354C17.2619 46.282 17.2185 46.2285 17.1663 46.1751C16.8536 45.8544 16.6973 45.5336 16.5409 45.1327C16.5149 45.0793 16.4888 45.0169 16.4627 44.9545C16.4106 44.8298 16.3585 44.7051 16.3064 44.6517C16.2673 44.6517 16.2477 44.6316 16.2282 44.6116C16.2087 44.5915 16.1891 44.5715 16.15 44.5715C16.15 44.4913 15.9937 44.4913 15.9155 44.4913C15.8764 44.4512 15.8178 44.4312 15.7591 44.4111C15.7005 44.3911 15.6419 44.371 15.6028 44.3309C15.5246 44.3309 15.4464 44.2507 15.3682 44.1706C15.2119 44.0904 15.1337 43.8498 15.0555 43.6093C14.9773 43.3688 14.9773 43.2084 14.9773 42.9679C14.9773 42.8354 15.001 42.703 15.0223 42.584C15.0397 42.4868 15.0555 42.3985 15.0555 42.3264C15.0669 42.2679 15.0783 42.2111 15.0895 42.1556C15.1548 41.8302 15.2119 41.5463 15.2119 41.2039C15.2901 40.4823 15.2119 39.6804 15.0555 38.9588C15.0164 38.8786 14.9969 38.7784 14.9773 38.6782C14.9578 38.578 14.9383 38.4777 14.8992 38.3976C14.821 38.2372 14.821 37.9967 14.821 37.7561C14.821 37.6759 14.821 37.5156 14.8992 37.4354C14.8992 37.275 14.9773 37.1948 15.0555 37.1147C15.1046 37.014 15.1845 36.9765 15.2565 36.9427C15.2992 36.9227 15.3391 36.904 15.3682 36.8741C15.4464 36.7939 15.6028 36.7939 15.6809 36.7939C16.0718 36.7939 16.4627 36.7138 16.7755 36.5534C17.0882 36.393 17.3227 36.1525 17.4009 35.8318C17.4572 35.5431 17.3918 35.2959 17.3217 35.0305C17.2944 34.9273 17.2664 34.8214 17.2445 34.7092C17.1663 34.3885 17.1663 33.9876 17.3227 33.5867C17.1664 33.5065 17.01 33.3462 16.9318 33.266L16.9318 33.266C16.7754 33.1858 16.6973 33.0254 16.6191 32.8651C16.5409 32.7047 16.4627 32.5444 16.4627 32.384V32.1435C16.3455 32.1835 16.2477 32.2437 16.15 32.3038C16.0523 32.364 15.9546 32.4241 15.8373 32.4642L15.1337 32.9453C15.0164 33.0655 14.8992 33.1658 14.7819 33.266C14.6646 33.3662 14.5474 33.4664 14.4301 33.5867L13.0229 34.7894C12.4756 35.1903 12.0065 35.5111 11.3811 35.7516C10.7557 35.9921 10.1303 36.0723 9.50483 35.912C9.42665 35.8719 9.34847 35.8518 9.2703 35.8318C9.19212 35.8117 9.11394 35.7917 9.03576 35.7516C8.8794 35.7516 8.72304 35.6714 8.56669 35.5912L8.1758 35.3507L7.7849 35.03C7.31583 34.5489 7.08129 33.9074 7.00311 33.266C7.00311 32.7047 7.08129 32.0633 7.31583 31.502C7.31583 31.4619 7.29628 31.4419 7.27674 31.4218C7.2572 31.4018 7.23765 31.3817 7.23765 31.3417C7.23765 31.3016 7.21811 31.2414 7.19856 31.1813C7.17902 31.1212 7.15947 31.061 7.15947 31.0209C7.08129 30.7804 7.08129 30.5398 7.15947 30.3795C7.23765 30.1389 7.31583 29.9786 7.55036 29.8182C7.62854 29.738 7.7849 29.738 7.86308 29.738H8.01944C8.07394 29.6262 8.16646 29.5534 8.24398 29.4924C8.27764 29.4659 8.30848 29.4416 8.33215 29.4173C8.41033 29.3772 8.48851 29.3171 8.56669 29.257C8.64487 29.1968 8.72305 29.1367 8.80122 29.0966L8.80124 29.0966C9.11395 28.9362 9.42666 28.7759 9.81755 28.6957C9.95088 28.6957 10.0751 28.6864 10.1965 28.6772C10.4309 28.6596 10.6545 28.6429 10.912 28.6957C11.0684 28.6957 11.3029 28.6957 11.4593 28.8561L11.6938 29.0966C11.6938 29.1367 11.7134 29.1768 11.7329 29.2169C11.7525 29.257 11.772 29.297 11.772 29.3371C11.8111 29.3772 11.8697 29.4173 11.9284 29.4574C11.987 29.4975 12.0456 29.5376 12.0847 29.5777C12.1629 29.6579 12.3193 29.8182 12.3974 29.9786C12.4756 30.1389 12.5538 30.2993 12.5538 30.4597V30.9407C12.4756 31.0209 12.3974 31.1011 12.3193 31.1011C12.2411 31.1011 12.1629 31.0209 12.1629 30.9407C12.1629 30.9407 12.1629 30.8606 12.0847 30.7804L11.9284 30.62C11.8502 30.5399 11.6939 30.4597 11.5375 30.3795L11.5375 30.3795C11.4593 30.3795 11.3811 30.3594 11.3029 30.3394C11.2248 30.3193 11.1466 30.2993 11.0684 30.2993H10.8339H10.5993C10.2866 30.2993 9.97391 30.4597 9.73937 30.7002C9.50483 30.9407 9.34848 31.2615 9.2703 31.5822C9.19212 31.7426 9.19212 31.9029 9.19212 32.0633C9.23121 32.1435 9.25075 32.2236 9.2703 32.3038C9.28984 32.384 9.30939 32.4642 9.34847 32.5444C9.50483 32.8651 9.66119 33.1056 9.9739 33.266C10.2084 33.4263 10.5993 33.5065 10.912 33.5065H11.4593C11.4917 33.5065 11.5375 33.4928 11.5911 33.4767C11.667 33.4539 11.7586 33.4263 11.8502 33.4263C11.8921 33.3619 11.9284 33.3032 11.962 33.2487C12.0541 33.0999 12.1266 32.9825 12.2411 32.8651C12.3974 32.7047 12.632 32.5444 12.8665 32.4642C12.9745 32.3535 13.1197 32.3192 13.2764 32.2822C13.3467 32.2656 13.4193 32.2485 13.4919 32.2236C13.7265 32.2236 13.961 32.1435 14.1174 32.0633C14.5083 31.8227 14.821 31.5822 15.1337 31.2615C15.2901 31.1011 15.4464 30.9407 15.5246 30.7804C15.644 30.6579 15.7179 30.4886 15.7809 30.344C15.8004 30.2993 15.8189 30.257 15.8373 30.2191C15.9568 30.0966 16.0306 29.9273 16.0936 29.7827C16.1131 29.738 16.1316 29.6957 16.15 29.6579C16.1891 29.5376 16.2282 29.4374 16.2673 29.3371C16.3064 29.2369 16.3455 29.1367 16.3846 29.0164C16.4236 28.816 16.4627 28.5955 16.5018 28.375C16.5409 28.1545 16.58 27.934 16.6191 27.7335C16.6191 27.6132 16.6386 27.513 16.6582 27.4128C16.6777 27.3126 16.6973 27.2123 16.6973 27.0921V26.7713V26.4506C16.6191 25.9695 16.5409 25.5686 16.3846 25.1677C16.0718 24.3659 15.5246 23.6443 14.8992 23.0029C14.7604 22.8131 14.5669 22.6514 14.3672 22.4846C14.2294 22.3694 14.0887 22.2518 13.961 22.1209C13.6483 21.8001 13.3356 21.4794 13.1011 21.0785C12.8665 20.6776 12.632 20.2767 12.5538 19.7956C12.3974 19.3145 12.3974 18.9136 12.3974 18.4326V17.7911C12.3974 17.6008 12.3485 17.4606 12.2893 17.2913C12.2737 17.2466 12.2574 17.1999 12.2411 17.1497C12.1629 16.9893 12.0847 16.849 12.0065 16.7087C11.9284 16.5683 11.8502 16.428 11.772 16.2677C11.7329 16.2677 11.6938 16.2877 11.6547 16.3078C11.6157 16.3278 11.5766 16.3479 11.5375 16.3479C11.6157 16.5082 11.6157 16.6686 11.6157 16.8289V16.8289C11.6157 17.0695 11.6157 17.2298 11.5375 17.4704C11.4593 17.6307 11.3811 17.7109 11.3029 17.7911C11.2248 17.8713 11.1466 17.9515 10.9902 17.9515H10.6775V18.0317V18.5929L10.443 19.074C10.3648 19.2344 10.2084 19.3145 10.0521 19.3947C9.73937 19.5551 9.42666 19.6353 9.11394 19.6353C8.80123 19.6353 8.48851 19.5551 8.1758 19.4749C8.09762 19.3947 8.09762 19.3145 8.09762 19.2344L8.1758 19.1542L8.48851 18.8335L8.48852 18.8334C8.56669 18.6731 8.64487 18.5127 8.64487 18.4326C8.64487 18.3524 8.56669 18.192 8.48851 18.1118C8.44942 18.1118 8.42987 18.0918 8.41033 18.0717C8.39079 18.0517 8.37124 18.0317 8.33215 18.0317H8.1758C8.1758 18.0812 8.14593 18.1001 8.10467 18.1263C8.07916 18.1425 8.0493 18.1614 8.01944 18.192C7.94126 18.2722 7.7849 18.3524 7.62855 18.2722C7.47219 18.192 7.39401 18.1118 7.31583 18.0317C7.23765 18.0317 7.23765 17.9515 7.23765 17.9515H7.15947C7.00312 18.0316 6.84676 18.0316 6.76858 17.9515C6.71646 17.9515 6.66434 17.8802 6.61222 17.8089C6.58616 17.7733 6.5601 17.7377 6.53404 17.7109V17.6307C6.48889 17.677 6.46982 17.6966 6.4467 17.7049C6.42979 17.7109 6.41072 17.7109 6.37768 17.7109H6.14315C6.06497 17.7109 5.98679 17.7109 5.90861 17.6307C5.83043 17.5506 5.75226 17.4704 5.75226 17.3902V17.31C5.71317 17.31 5.65453 17.3301 5.5959 17.3501C5.53726 17.3702 5.47863 17.3902 5.43954 17.3902C5.28318 17.3902 5.12683 17.3902 5.04865 17.31C4.9292 17.31 4.85538 17.2164 4.79233 17.1365C4.77284 17.1118 4.75439 17.0884 4.73593 17.0695C4.57958 16.8289 4.5014 16.5884 4.5014 16.3479V15.9469H4.26686C4.1105 15.9469 3.95415 15.8668 3.79779 15.7064C3.7587 15.6663 3.73915 15.6262 3.71961 15.5861C3.70007 15.546 3.68052 15.506 3.64143 15.4659C3.56325 15.3055 3.56325 15.2253 3.56325 15.1451V14.9848C3.48508 14.9848 3.32872 14.9848 3.25054 14.9046C3.15239 14.8543 3.11585 14.7723 3.08291 14.6985C3.06337 14.6547 3.0451 14.6137 3.016 14.5839C2.93782 14.5037 2.93782 14.3433 2.93782 14.2632C2.93782 14.1028 2.93782 13.8623 3.016 13.7019C3.05509 13.6618 3.07464 13.6017 3.09418 13.5415C3.11373 13.4814 3.13327 13.4213 3.17236 13.3812C3.016 13.301 2.93782 13.2208 2.85964 13.1406C2.7402 13.0181 2.66638 12.8488 2.60333 12.7042C2.58384 12.6595 2.56539 12.6172 2.54693 12.5794C2.46875 12.3388 2.46875 12.0983 2.62511 11.9379C2.62511 11.8978 2.64465 11.8577 2.6642 11.8176ZM21.4268 36.8645C21.4167 36.892 21.404 36.9215 21.388 36.9543C21.3098 37.1147 21.2316 37.1948 21.1535 37.275C20.9971 37.5156 20.7626 37.6759 20.528 37.8363C20.2935 37.9967 20.059 38.137 19.8244 38.2773C19.5899 38.4176 19.3554 38.5579 19.1208 38.7183C18.7748 38.9548 18.4288 39.1914 18.1142 39.4923C18.4232 39.128 18.8502 38.7697 19.2772 38.4777C19.4761 38.3417 19.6892 38.2201 19.8984 38.1007C20.1824 37.9385 20.4593 37.7804 20.6844 37.5957C20.9189 37.4354 21.1535 37.275 21.3098 37.0345C21.3488 36.9945 21.3878 36.9345 21.4268 36.8645ZM21.4268 36.8645C21.4662 36.7578 21.4662 36.6809 21.4662 36.5534V36.4732C21.5195 36.455 21.5688 36.4368 21.6149 36.4185C21.606 36.4837 21.5866 36.5469 21.5443 36.6336C21.5052 36.7139 21.466 36.7943 21.4268 36.8645ZM21.6149 36.4185C21.6225 36.3631 21.6225 36.3064 21.6225 36.2327L22.0916 35.9921C22.248 35.912 22.4043 35.8318 22.5607 35.6714C22.717 35.5111 22.7952 35.3507 22.8734 35.1903C22.8824 35.1719 22.8914 35.1544 22.9004 35.1379L23.1079 35.3507C22.9516 35.1903 22.8734 35.2705 22.7952 35.4309C22.7561 35.511 22.6975 35.5912 22.6389 35.6714C22.5802 35.7516 22.5216 35.8318 22.4825 35.912C22.3261 36.0723 22.1698 36.1525 22.0134 36.2327C21.8926 36.2946 21.7718 36.3566 21.6149 36.4185ZM16.9417 15.6655C16.8602 15.6808 16.7787 15.6945 16.6973 15.7064L16.7227 15.7325C16.7967 15.7102 16.8696 15.6879 16.9417 15.6655ZM16.2669 15.2754C16.3096 15.3312 16.3511 15.3869 16.3921 15.442C16.4731 15.5507 16.5524 15.6573 16.6367 15.7583C16.605 15.7677 16.5731 15.7772 16.5409 15.7866C16.4627 15.7064 16.4041 15.6262 16.3455 15.546C16.2868 15.4659 16.2282 15.3857 16.15 15.3055L16.15 15.3055C16.189 15.2955 16.2279 15.2855 16.2669 15.2754ZM19.1214 17.8712C19.3167 17.8312 19.5315 17.8111 19.7462 17.7911C19.9612 17.7711 20.1762 17.751 20.3717 17.7109H20.6844C20.6844 17.7137 20.6845 17.7163 20.6847 17.7189L19.199 17.8713C19.1722 17.8713 19.1464 17.8713 19.1214 17.8712ZM16.7755 17.2298C17.2445 17.31 17.6354 17.3902 18.0263 17.5506C18.1045 17.5907 18.2022 17.6307 18.2999 17.6708C18.3977 17.7109 18.4954 17.751 18.5736 17.7911C18.7813 17.8621 18.9277 17.8702 19.1214 17.8712C19.1212 17.8712 19.121 17.8712 19.1208 17.8713C18.9166 17.9411 18.7716 17.8893 18.5827 17.8218C18.5547 17.8118 18.5257 17.8015 18.4954 17.7911C18.4172 17.751 18.3195 17.7109 18.2218 17.6708C18.124 17.6307 18.0263 17.5907 17.9481 17.5506C17.5572 17.3902 17.1663 17.31 16.7755 17.2298ZM15.5246 17.31C15.9155 17.1497 16.3846 17.1497 16.7755 17.2298C16.3846 17.1497 15.9155 17.2298 15.5246 17.31ZM24.9048 14.8408C24.9264 14.9046 24.906 14.9046 24.906 14.9046C24.899 14.8974 24.892 14.8909 24.885 14.8848C24.8944 14.873 24.902 14.8594 24.9048 14.8408ZM24.9048 14.8408C24.8841 14.7795 24.8248 14.6593 24.6715 14.4235C24.7106 14.4235 24.7301 14.4436 24.7497 14.4636C24.7692 14.4837 24.7888 14.5037 24.8279 14.5037C24.8279 14.5438 24.8474 14.5638 24.8669 14.5839C24.8865 14.6039 24.906 14.624 24.906 14.6641V14.8244C24.906 14.8303 24.9056 14.8358 24.9048 14.8408ZM26.8263 7.92267C26.6813 7.56183 26.5364 7.2699 26.3914 7.04689L26.3132 6.96671C26.3132 6.88653 26.2351 6.88653 26.2351 6.88653C26.1899 6.84022 26.1708 6.82066 26.1477 6.8124C26.1308 6.80635 26.1117 6.80635 26.0787 6.80635C26.0396 6.80635 26.0201 6.82639 26.0005 6.84644C25.981 6.86648 25.9614 6.88653 25.9224 6.88653C25.8442 6.88653 25.766 6.96671 25.766 7.04689C25.6878 7.20725 25.6878 7.36761 25.6878 7.52797C25.6878 7.68833 25.6878 7.92888 25.766 8.00906C25.766 8.08924 25.8442 8.08924 25.8442 8.08924H25.9224L26.0787 7.92888C26.1569 7.76852 26.2351 7.60815 26.2351 7.44779C26.2351 7.60815 26.2351 7.8487 26.1569 8.00906L25.9224 8.2496H25.766H25.6878C25.6878 8.36335 25.6703 8.47709 25.6188 8.5654C26.0351 8.35116 26.4453 8.13691 26.8263 7.92267ZM23.5888 9.80709C24.1082 9.52849 24.6243 9.24989 25.1405 8.97129L25.1406 8.97123H24.906L24.7497 8.81087C24.7497 8.89105 24.7497 8.97123 24.6715 9.05141C24.6715 9.10096 24.6416 9.11989 24.6004 9.14605C24.5749 9.16221 24.545 9.18114 24.5151 9.21177C24.437 9.29195 24.3588 9.29195 24.2806 9.29195C24.2024 9.29195 24.1242 9.29195 23.8115 9.53249L23.7334 9.45231V9.61267C23.6997 9.68175 23.6515 9.75083 23.5888 9.80709ZM9.73937 5.28291C9.81755 5.36309 9.89573 5.44327 9.89573 5.52346C9.85664 5.48336 9.83709 5.44327 9.81755 5.40318C9.798 5.36309 9.77846 5.323 9.73937 5.28291ZM25.6097 22.8425L25.6096 22.8425C25.0624 22.2812 24.5151 21.8001 23.7334 21.1587C23.4728 21.2656 23.2122 21.3012 22.9516 21.3369C22.8213 21.3547 22.691 21.3725 22.5607 21.3992C22.0916 21.4794 21.5443 21.5596 20.9971 21.5596H19.4335C19.2381 21.5596 19.0426 21.5396 18.8472 21.5195C18.6517 21.4995 18.4563 21.4794 18.2608 21.4794L17.7136 21.5596C17.7136 21.5596 18.8081 22.8425 22.4825 24.7668C25.0721 26.1231 24.9823 27.1607 24.9226 27.8516C24.8975 28.141 24.8777 28.3696 25.0624 28.5353C26.0787 29.4173 25.4533 30.2191 25.4533 30.2191C25.4533 30.2191 26.0005 30.7804 27.0169 31.4218C27.8768 31.9831 27.095 33.0254 27.095 33.0254C27.095 33.0254 27.7205 33.3462 27.5641 34.148C27.4078 34.6291 27.4078 36.0723 28.5023 36.3129C29.2059 36.4732 29.1277 36.8741 29.1277 36.8741C29.1277 36.8741 30.5349 37.7561 31.7858 37.7561C33.0366 37.6759 34.0529 37.7561 34.4438 38.157C34.8347 38.5579 34.6784 38.8786 34.6784 38.8786L35.3038 38.5579C34.9129 38.157 34.4438 37.7561 33.8966 37.5156C33.662 37.4354 33.3493 37.3552 33.0366 37.3552L32.0985 37.275C31.5788 37.2084 31.113 37.0864 30.6115 36.955C30.5095 36.9283 30.4061 36.9012 30.3004 36.8741C29.9876 36.7939 29.6749 36.6336 29.4404 36.4732C29.2059 36.3129 28.9713 36.0723 28.815 35.7516C28.7368 35.5912 28.6586 35.4309 28.6586 35.2705V34.7894C28.6586 34.6291 28.6782 34.4687 28.6977 34.3083C28.7172 34.148 28.7368 33.9876 28.7368 33.8273C28.7368 33.6669 28.7563 33.5065 28.7759 33.3462C28.7954 33.1858 28.815 33.0254 28.815 32.8651V32.865C28.815 32.5443 28.815 32.2236 28.7368 31.9029C28.7368 31.7855 28.6949 31.7111 28.6418 31.6167C28.6223 31.5822 28.6014 31.545 28.5804 31.502L28.2677 31.1813C28.1504 31.1011 28.0332 31.0009 27.9159 30.9007C27.7986 30.8004 27.6814 30.7002 27.5641 30.62C27.3921 30.5024 27.2202 30.3741 27.0444 30.2429C26.7406 30.0161 26.4253 29.7808 26.0787 29.5777V29.4975C26.5478 28.856 26.9387 28.0542 27.095 27.2524C27.2514 26.8515 27.2514 26.4506 27.2514 26.0497V26.0497C27.2514 25.6488 27.1732 25.2479 27.0169 24.847C26.7823 24.0452 26.1569 23.4038 25.6097 22.8425ZM27.8768 11.1361C27.955 11.2163 27.955 11.2965 27.8768 11.3766V11.1361ZM25.0624 8.73068H25.1406C25.1938 8.73068 25.2108 8.69349 25.2162 8.6951C25.2187 8.69585 25.2187 8.70512 25.2187 8.73068C25.4248 8.73068 25.5102 8.54497 25.5809 8.39111C25.5907 8.36987 25.6002 8.34924 25.6096 8.32978H25.5315C25.5105 8.28681 25.4896 8.2496 25.4701 8.21506C25.417 8.12069 25.3751 8.04627 25.3751 7.92888C25.1406 7.92888 24.9842 8.00906 24.906 8.08924V8.16942V8.49014C24.906 8.57032 24.9842 8.6505 25.0624 8.73068ZM23.4356 10.5049C23.3303 10.5756 23.2316 10.6418 23.1861 10.7352C23.0297 10.8956 23.0297 11.1361 23.1079 11.3766C23.1861 11.537 23.3425 11.6172 23.577 11.6172H24.1242L23.577 11.6974C23.4988 11.6172 23.3425 11.6172 23.2643 11.6172V11.7776C23.2643 11.7776 23.2643 11.8343 23.2178 11.8523C23.2664 11.8439 23.3142 11.8356 23.3614 11.8273C23.7557 11.7585 24.1056 11.6974 24.5151 11.6974V11.537C24.5151 11.4568 24.5933 11.2965 24.6715 11.2163C24.7014 11.1857 24.7198 11.155 24.7356 11.1289C24.7611 11.0866 24.7795 11.0559 24.8279 11.0559C24.8279 11.0559 24.906 10.9757 24.9842 10.9757C25.1406 10.8956 25.2187 10.8956 25.3751 10.9757L25.5315 11.1361V11.0559C25.5315 10.8956 25.6096 10.8154 25.6878 10.7352C25.766 10.655 25.9224 10.5748 26.0005 10.5748H26.2351C26.2351 10.5348 26.2546 10.4746 26.2742 10.4145C26.2937 10.3543 26.3132 10.2942 26.3132 10.2541C26.3132 10.1367 26.3551 10.0623 26.4083 9.96794C26.4277 9.9334 26.4487 9.89618 26.4696 9.85321C26.5087 9.73294 26.5478 9.63272 26.5869 9.53249C26.626 9.43227 26.6651 9.33204 26.7041 9.21177C26.2351 9.45231 25.6878 9.69284 25.1406 9.93338L25.1406 9.9334V10.0938C25.0624 10.3343 24.906 10.5748 24.6715 10.655C24.5151 10.7352 24.2806 10.8154 24.0461 10.8154C24.2806 10.7352 24.437 10.655 24.5933 10.4947C24.7497 10.4145 24.906 10.2541 24.906 10.0938C24.906 10.0938 24.8279 10.0136 24.8279 9.9334V9.85321H24.7497C24.6976 9.79976 24.6454 9.81758 24.5933 9.8354C24.5673 9.84431 24.5412 9.85321 24.5151 9.85321C24.4554 9.88384 24.4071 9.90277 24.3658 9.91894C24.2991 9.94509 24.2507 9.96402 24.2024 10.0136C24.1242 10.0537 24.0265 10.1138 23.9288 10.1739C23.8311 10.2341 23.7334 10.2942 23.6552 10.3343C23.5899 10.4012 23.511 10.4542 23.4356 10.5049ZM24.7497 13.1406V12.9001V12.6595V12.5794L23.8115 12.7397H23.8897C23.9679 12.7798 24.0656 12.8399 24.1633 12.9001C24.2611 12.9602 24.3588 13.0204 24.437 13.0604C24.476 13.1005 24.5151 13.1206 24.5542 13.1406C24.5933 13.1607 24.6324 13.1807 24.6715 13.2208H24.7497V13.1406ZM22.0916 11.3766C22.0134 11.4568 21.8571 11.6172 21.7007 11.6172C21.6225 11.6172 21.4662 11.6172 21.2316 11.537C21.3098 11.6172 21.3098 11.6974 21.3098 11.7776C21.388 11.9379 21.388 12.0181 21.388 12.0983V12.1785C21.8571 12.0181 22.248 11.9379 22.717 11.8577L22.7952 11.6974C22.7952 11.6172 22.7952 11.537 22.8734 11.537C22.9125 11.537 22.932 11.517 22.9516 11.4969C22.9711 11.4769 22.9907 11.4568 23.0297 11.4568C22.9814 11.4568 22.963 11.4262 22.9375 11.3839C22.9217 11.3577 22.9032 11.3271 22.8734 11.2965C22.7952 11.2163 22.7952 11.0559 22.7952 10.8956C22.7561 10.9357 22.6975 10.9757 22.6389 11.0158C22.5802 11.0559 22.5216 11.096 22.4825 11.1361C22.4043 11.2163 22.248 11.2965 22.0916 11.3766ZM12.3193 7.60815C12.3193 7.60815 11.772 6.80635 10.2084 7.04689C9.50483 7.12707 9.03576 7.44779 8.64487 7.76852L8.64487 7.76851C8.87941 7.68833 9.11394 7.60815 9.34847 7.60815C9.81755 7.52797 10.2084 7.52797 10.5993 7.68833C10.9902 7.76852 11.3811 8.00906 11.6157 8.32978C11.3811 8.00906 10.9902 7.92888 10.5993 7.8487C10.2866 7.76852 9.89572 7.8487 9.50483 7.92888L9.50483 7.92888C9.39695 7.95654 9.28907 7.9842 9.18119 8.00857C9.54384 7.98336 9.95761 7.99283 10.2866 8.08924C10.9902 8.32978 11.2248 8.89105 11.2248 8.89105C11.2248 8.89105 11.3811 8.97123 11.5375 8.89105C11.6157 8.89105 11.6157 8.81087 11.6157 8.81087V8.89105C11.6404 8.87835 11.6671 8.86566 11.6952 8.85233C11.8443 8.78146 12.0313 8.6926 12.1629 8.49014C12.5538 7.92888 12.3193 7.60815 12.3193 7.60815ZM52.6199 24.2986C52.6199 26.1236 51.0074 27.9486 49.2836 27.9486H47.2261V13.9761H49.0611V13.6909H43V13.919H44.6126V27.9486H43V28.1767H52.898V22.9299H52.6199V24.2986ZM73.64 34.5644C73.4731 34.3933 73.3063 34.3363 72.9727 34.2223L72.361 34.0511C72.1942 33.9941 72.0274 33.9371 71.9161 33.823C71.8605 33.766 71.8049 33.6519 71.8049 33.5949C71.8049 33.4808 71.8605 33.3097 72.0274 33.2527C72.1386 33.1957 72.3054 33.1387 72.4722 33.1387C72.639 33.1387 72.8058 33.1957 72.9171 33.2527C73.0839 33.3668 73.1951 33.5379 73.3063 33.709L73.8624 33.5379C73.7512 33.1957 73.5287 32.9105 73.1951 32.7394C72.9727 32.6254 72.6946 32.5684 72.4722 32.5684C72.2498 32.5684 71.9717 32.5684 71.7493 32.7394C71.4157 32.9105 71.1932 33.1957 71.1932 33.5949C71.1932 33.823 71.3045 34.1082 71.4713 34.2793C71.6033 34.4146 71.7701 34.4786 71.9718 34.5559C72.0249 34.5763 72.0805 34.5976 72.1386 34.6215L72.8058 34.7925C72.9727 34.8496 73.0839 34.9066 73.1951 34.9636C73.3063 35.0207 73.3063 35.1347 73.3063 35.2488C73.3063 35.3628 73.2507 35.5339 73.1395 35.591C72.9727 35.705 72.7502 35.7621 72.5278 35.7621C72.2498 35.7621 71.9717 35.648 71.8049 35.4199C71.6937 35.3058 71.6381 35.1347 71.6381 34.9636L71.082 35.1347C71.1376 35.3628 71.2488 35.591 71.3601 35.8191C71.6381 36.1613 72.0274 36.3324 72.5278 36.3324C72.8615 36.3324 73.1951 36.2753 73.4731 36.1042C73.7512 35.9332 73.918 35.591 73.918 35.3058C73.9736 35.0207 73.8624 34.7925 73.64 34.5644ZM65.6868 34.564C65.8536 34.3929 65.9092 34.1078 65.9092 33.8226C65.9092 33.5375 65.798 33.3094 65.6312 33.0812C65.52 32.9102 65.2976 32.7961 65.0751 32.682C64.9639 32.625 64.8527 32.625 64.6859 32.625H63.1289V36.2179H63.685V34.9062H64.6859L65.2976 36.2179H65.9092L65.242 34.7922C65.4644 34.7922 65.5756 34.6781 65.6868 34.564ZM65.242 34.2219C65.1307 34.3929 64.9639 34.45 64.7971 34.45H63.7962V33.1953H64.7971C64.9639 33.1953 65.1307 33.3094 65.242 33.4234C65.3532 33.5375 65.4088 33.7086 65.4088 33.8226C65.4088 33.9937 65.3532 34.1078 65.242 34.2219ZM61.3513 34.3361L61.407 34.279C61.5182 34.1079 61.6294 33.8798 61.6294 33.7087C61.6294 33.4806 61.5738 33.2525 61.407 33.1384C61.2957 32.9673 61.1289 32.8533 60.9065 32.7962C60.7953 32.7392 60.6841 32.7392 60.5728 32.7392H59.2383V36.3321H60.6285C60.7397 36.3321 60.9065 36.3321 61.0177 36.2751C61.2401 36.2181 61.407 36.104 61.5738 35.8759C61.685 35.7048 61.7962 35.4767 61.7962 35.2486C61.7962 35.0204 61.7406 34.7923 61.5738 34.6212C61.5182 34.4501 61.4626 34.3931 61.3513 34.3361ZM59.7943 33.1955H60.6285C60.7397 33.1955 60.8509 33.2525 60.9621 33.3665C61.0177 33.4236 61.0733 33.5376 61.0733 33.6517C61.0733 33.7658 61.0177 33.8798 60.9621 33.9369C60.9065 34.0509 60.7397 34.1079 60.6841 34.1079H59.7943V33.1955ZM61.0733 35.5907C60.9621 35.7048 60.7953 35.7618 60.6285 35.7618H59.7943V34.6783H60.6841C60.7953 34.6783 60.9621 34.7353 61.0733 34.8493C61.1289 34.9634 61.1845 35.0775 61.1845 35.2486C61.2401 35.3626 61.1845 35.4767 61.0733 35.5907ZM67.1875 36.2756L68.2996 32.6826H69.1337L70.2459 36.2756H69.6898L69.4674 35.6482H67.9104L67.7436 36.2756H67.1875ZM68.6889 33.1959L68.0772 35.1349H69.3006L68.6889 33.1959ZM76.9766 34.2223C77.3102 34.3363 77.477 34.3933 77.6438 34.5644C77.8107 34.7925 77.9219 35.0207 77.9219 35.3058C77.9219 35.591 77.7551 35.9332 77.477 36.1042C77.199 36.2753 76.8653 36.3324 76.5317 36.3324C76.0312 36.3324 75.642 36.1613 75.364 35.8191L75.3639 35.819C75.2527 35.5909 75.1415 35.3628 75.0859 35.1347L75.642 34.9636C75.642 35.1347 75.6976 35.3058 75.8088 35.4199C75.9756 35.648 76.2537 35.7621 76.5317 35.7621C76.7541 35.7621 76.9766 35.705 77.1434 35.591C77.2546 35.5339 77.3102 35.3628 77.3102 35.2488C77.3102 35.1347 77.3102 35.0207 77.199 34.9636C77.0878 34.9066 76.9766 34.8496 76.8097 34.7925L76.1425 34.6215C76.0844 34.5976 76.0288 34.5763 75.9756 34.5559C75.774 34.4786 75.6072 34.4146 75.4752 34.2793C75.3084 34.1082 75.1972 33.823 75.1972 33.5949C75.1972 33.1957 75.4196 32.9105 75.7532 32.7394C75.9756 32.5684 76.2537 32.5684 76.4761 32.5684C76.6985 32.5684 76.9766 32.6254 77.199 32.7394C77.5326 32.9105 77.7551 33.1957 77.8663 33.5379L77.3102 33.709C77.199 33.5379 77.0878 33.3668 76.921 33.2527C76.8097 33.1957 76.6429 33.1387 76.4761 33.1387C76.3093 33.1387 76.1425 33.1957 76.0312 33.2527C75.8644 33.3097 75.8088 33.4808 75.8088 33.5949C75.8088 33.6519 75.8644 33.766 75.92 33.823C76.0312 33.9371 76.1981 33.9941 76.3649 34.0511L76.9766 34.2222L76.9766 34.2223ZM79.3125 36.2756H81.5924V35.7052H79.8686V34.7357H81.3143V34.1654H79.8686V33.1959H81.5924V32.6826H79.3125V36.2756ZM85.8155 33.8226C85.8155 34.1078 85.7599 34.3929 85.5931 34.564C85.4818 34.6781 85.315 34.7922 85.1482 34.7922L85.8155 36.2179H85.1482L84.5365 34.9062H83.5912V36.2179H83.0352V32.625H84.5921C84.759 32.625 84.8702 32.625 84.9814 32.682C85.2038 32.7961 85.4262 32.9102 85.5375 33.0812C85.7043 33.3094 85.8155 33.5375 85.8155 33.8226ZM84.7034 34.45C84.8702 34.45 85.037 34.3929 85.1482 34.2219L85.1483 34.2218C85.2038 34.1077 85.2594 33.9937 85.315 33.8226C85.315 33.7086 85.2594 33.5375 85.1482 33.4234C85.037 33.3094 84.8702 33.1953 84.7034 33.1953H83.7024V34.45H84.7034ZM87.8178 32.6826H87.2617V36.2756H87.8178V32.6826ZM91.9352 36.2756H89.7109V32.6826H91.9352V33.1959H90.267V34.1654H91.6572V34.7357H90.267V35.7052H91.9352V36.2756ZM64.4074 24.6973V26.2941C64.4074 27.4348 63.9626 28.3472 62.4056 28.2332C60.9042 28.2332 60.2925 27.4348 60.2925 25.8949C60.0701 27.2066 58.9023 28.2902 57.0673 28.2902C55.3435 28.2902 54.1758 27.2066 54.1758 25.4957C54.1758 23.3856 55.7884 22.302 58.1795 22.302C58.8467 22.302 59.5696 22.359 60.1813 22.5301V19.9067C60.1813 18.4239 59.514 17.8536 58.2351 17.8536C57.5122 17.8536 56.9561 18.0817 56.5669 18.3099C56.4557 18.3669 56.4 18.4809 56.4 18.538C56.4 18.6039 56.4 18.6317 56.4108 18.6545C56.4186 18.6711 56.4322 18.685 56.4557 18.7091C57.0673 18.8802 57.401 19.3364 57.401 19.9637C57.401 20.7622 56.6781 21.2184 56.0108 21.2184C55.3435 21.2184 54.6762 20.8192 54.6762 19.9637C54.6762 18.652 56.122 17.6255 58.5687 17.6255C61.1822 17.6255 62.628 18.4809 62.628 20.7051V25.8949C62.628 27.1496 62.7948 27.6058 63.4065 27.6058C63.8513 27.6058 64.185 27.2637 64.185 26.2941V24.6973H64.4074ZM58.1795 27.6058C59.1248 27.6058 60.1813 26.5793 60.1813 24.7543H60.2369V22.8723C59.8477 22.7582 59.3472 22.7012 58.9023 22.7012C57.4566 22.7012 56.7893 23.6137 56.7893 25.3246C56.7893 27.0926 57.2898 27.6058 58.1795 27.6058ZM77.4214 27.948V28.1762H81.3139V21.1044C81.3139 19.0513 80.591 17.6255 78.6448 17.6255C76.9766 17.6255 75.4196 18.9942 75.0303 20.8192C74.9191 18.8231 74.1962 17.6255 72.3612 17.6255C70.693 17.6255 69.1916 18.9942 68.8024 20.7051V17.8536H64.6875V18.0817H66.3557V27.948H64.6875V28.1762H70.0814V27.948H68.8024V22.4161C68.8024 20.0208 70.2482 18.3099 71.3603 18.3099C72.1388 18.3099 72.5836 18.8802 72.5836 20.0208V27.948H71.1379V28.1762H76.3093V27.948H75.0303V22.245C75.086 19.9637 76.4761 18.3099 77.5883 18.3099C78.3667 18.3099 78.8672 18.8231 78.8672 19.9637V27.948H77.4214ZM92.9336 17.854H97.0485V27.9484H98.7167V28.1766H92.9336V27.9484H94.6018V18.0821H92.9336V17.854ZM95.8247 16.7703C96.6588 16.7703 97.2148 16.143 97.2148 15.3446C97.2148 14.4891 96.6032 13.8618 95.8247 13.8618C94.9906 13.8618 94.3789 14.4891 94.3789 15.3446C94.3789 16.2 94.9906 16.7703 95.8247 16.7703ZM103.779 28.1191C105.503 28.1191 106.893 26.9215 107.227 24.6973H107.505C107.171 27.2066 105.67 28.4043 103.779 28.4043C100.665 28.4043 98.7188 26.4082 98.7188 23.0434C98.7188 19.7356 100.609 17.6255 103.557 17.6255C105.948 17.6255 107.338 18.8231 107.338 20.2489C107.338 21.1614 106.671 21.6176 106.003 21.6176C105.336 21.6176 104.669 21.1614 104.669 20.2489C104.669 19.6216 105.002 19.0513 105.614 18.8802C105.725 18.8231 105.725 18.7661 105.725 18.7091C105.725 18.595 105.67 18.538 105.614 18.4809C105.28 18.0817 104.669 17.8536 103.946 17.8536C102.278 17.8536 101.388 19.0513 101.388 23.0434C101.388 26.8074 102.111 28.1191 103.779 28.1191ZM88.6537 17.626C87.1523 17.626 86.0402 18.3674 85.5954 20.1354V13.6909H81.4805V13.919H83.1487V28.1767H83.3711C83.7603 27.3783 84.9281 26.3517 85.5954 26.1236C86.0958 27.6064 87.1523 28.3478 88.5981 28.3478C90.9336 28.3478 92.713 26.2947 92.713 22.9299C92.7686 19.451 91.0448 17.626 88.6537 17.626ZM87.8752 27.8345C86.4295 27.8345 85.5954 26.2377 85.5954 24.0135V21.9033C85.5954 19.7932 86.4851 18.1393 87.8752 18.1393C89.321 18.1393 89.9327 19.5651 89.9327 22.9869C89.9327 26.1236 89.2098 27.8345 87.8752 27.8345Z" fill="white"/>
<path fill-rule="evenodd" clip-rule="evenodd" d="M7.39523 14.1026C7.55159 14.1026 7.78612 14.1026 7.94248 14.0224C8.09884 14.0224 8.25519 13.9422 8.48973 13.862C8.80245 13.7818 9.11516 13.7818 9.3497 14.0224L9.42788 14.1026C9.42788 14.1827 9.50605 14.1827 9.50605 14.2629C9.58423 14.3431 9.66241 14.4233 9.74059 14.5035C9.89695 14.5836 10.1315 14.6638 10.2878 14.5836C10.366 14.6638 10.4442 14.744 10.4442 14.8242C10.4442 14.9044 10.4442 14.9044 10.4442 14.9846C10.4442 14.9846 10.366 15.0647 10.366 15.1449C10.2878 15.2251 10.2097 15.2251 10.0533 15.2251C9.89695 15.2251 9.81877 15.1449 9.66241 15.1449C9.74059 15.2251 9.89695 15.2251 10.0533 15.3053C10.2097 15.3053 10.366 15.3053 10.4442 15.2251C10.5224 15.1449 10.5224 15.1449 10.6006 15.0647C10.6006 14.9846 10.6006 14.9044 10.6006 14.8242C10.5224 14.6638 10.4442 14.5836 10.366 14.5035H10.2878C10.1315 14.5836 9.97513 14.5035 9.89695 14.4233C9.81877 14.3431 9.81877 14.3431 9.74059 14.2629L9.66241 14.1827C9.66241 14.1026 9.58423 14.1026 9.58423 14.0224C9.42787 13.862 9.27152 13.7017 9.03698 13.7017C8.80245 13.7017 8.64609 13.7017 8.41155 13.7017C8.2552 13.7017 8.02066 13.7818 7.8643 13.7818C7.70794 13.862 7.55159 13.862 7.39523 13.862C7.08251 13.9422 6.69162 13.862 6.37891 13.862C6.69162 14.0224 7.08251 14.1026 7.39523 14.1026Z" fill="white"/>
</svg>
